<svg xmlns="http://www.w3.org/2000/svg" width="482.482" height="442.176" viewBox="0 0 482.482 442.176">
  <g id="Group_3" data-name="Group 3" transform="translate(-439.086 -215.046)">
    <path id="Path_46" data-name="Path 46" d="M740.915,257.721l-.013-.136-.032-.133-.091-.2-1.569-2.172-1.588-2.109-.816-1.037-.824-1.018-1.659-2-1.73-1.983-.881-.985-.869-.947-1.822-1.873-.921-.937-.914-.9-.959-.917-.952-.885-1.932-1.756-1-.875-1-.83-2.016-1.659-2.094-1.63-2.1-1.568-2.164-1.533-2.191-1.468-.26-.036-.24-.074-2.165-1.125-2.185-1.1-2.217-1.073-2.236-1.027-2.249-1.027-2.269-.992-2.295-.982-2.308-.931h-3.9l-.012-.143v-.081l-.032-.055v-.009l-.525-.123-.48-.126-.46-.146-.4-.162-.408-.188-.375-.208-.344-.217-.3-.227h-3.9v-.279l-.363-.016-.175-.02h-.143l-.162-.026-.123-.019-.13-.045-.091-.036-.1-.071-.084-.075-.143-.143-.11-.181-.045-.214-.557-.029-1.679-.172-1.639-.143-3.28-.227-3.247-.133-3.17-.064h-3.183l-3.111.09-3.086.162-1.529.108-1.517.145-3.008.3-2.994.4-1.485.217-1.452.253-2.9.577-1.452.289-1.433.324-2.82.719-2.806.785-1.387.408-1.362.467h-.007v.11H630.4v.107l-.039.036h-.019v.045l-.026.02-.026.026-.195.09-.175.133-.155.12-.129.179-.123.155-.1.208-.078.207-.039.234-.279.026-.253.071-1.8.551-1.75.623-1.73.632-1.673.684-1.679.678-1.621.739-1.607.784-1.556.8-.032.126-.013.117-.038.029h-.019v.045l-.032.036h-.013v.036l-.441.369-.434.389-.843.755-.875.723-.856.749-1.75,1.448-1.77,1.442-1.828,1.391-1.828,1.377-.94.658-.92.688-.934.667-.486.33-.454.344-.142-.01-.13-.035-.195-.1-3.28-2.165-3.228-2.181-3.229-2.216-3.2-2.227-.019-.146-.027-.09-.045-.1-.052-.045-1.562-1.128-.8-.548-.791-.525-1.634-1.027-.817-.512-.823-.47-1.724-.966-1.738-.9-1.8-.875-.9-.422-.9-.4-1.88-.811-.946-.4-.934-.363-1.951-.709-.979-.343-.979-.315-2.022-.652-2.042-.583-2.1-.561-1.063-.263-1.057-.243-.019-.143-.013-.081-.038-.071-.013-.02-.584-.233-.583-.191-.623-.188-.609-.163-.654-.155-.649-.133-.661-.11-.661-.072-.719-.1-.713-.045-.74-.046-.746-.029-.771-.006-.778.006-.8.036-.784.074v-.288l-.37-.02-.169-.016h-.143l-.155-.036-.123-.009-.13-.046-.1-.035-.11-.081-.078-.065-.149-.136-.1-.2-.052-.2-.544-.016-3.844-.182-3.8-.071h-3.8l-3.766.107-3.76.172-3.74.288-3.734.36-3.7.47h-.013v.2l-.026.055h-.026v.036l-.441.1-.4.146-.376.143-.33.172-.35.172-.3.207-.291.208-.253.233H508.2v.11l-.012.1-.039.035h-.013v.046l-.026.045-1.063.451-.544.2-.519.226-1.069.4-.558.191-.538.2-.564.181-.558.188-1.121.343-1.141.315-1.154.324-.266.01-.226.1-1.628.775-1.594.836-1.588.84-1.537.885-1.53.9-1.471.927-1.472.956-1.427.992-1.439,1-1.374,1.047-1.374,1.053-1.329,1.092-1.316,1.1-1.276,1.154-1.264,1.154-1.219,1.2-1.219,1.179-1.192,1.265-1.167,1.241-1.128,1.3-1.115,1.316-1.076,1.335-1.063,1.367-1.011,1.407-1.024,1.407-.972,1.452-.959,1.472-.92,1.5-.9,1.5-.875,1.568-.849,1.563-.8,1.614-.24.016-.078.029-.033.062-1.393,2.6-.363.642-.35.648-.7,1.29-1.42,2.55-.726,1.251-.713,1.264h19.122l.447-1.316.493-1.28.492-1.28.518-1.235.519-1.235.551-1.2.558-1.209.6-1.163.59-1.17.635-1.138.628-1.144.668-1.093.661-1.089.7-1.067.706-1.053.745-1.027.726-1.027.778-1,.771-.992.811-.956.81-.962.83-.921.843-.911.888-.891.868-.885.914-.846.921-.865.952-.8.94-.82.979-.775,1-.775,1.024-.749.052-.055v-.055h.012l.026-.026.039-.117v-.107h.019l1.31-.839,1.374-.795,1.38-.765,1.433-.749,1.439-.723,1.478-.684,1.484-.687,1.537-.613,1.536-.613,1.575-.587,1.595-.558,1.646-.515,1.653-.532,1.692-.45,1.692-.461,1.75-.415.253-.052.272-.01.045-.243.11-.172.143-.171.195-.108.1-.064.116-.036.292-.045.311-.017.362.017v-.27l2.632-.236,1.3-.088,1.31-.074,2.567-.107,1.264-.036h1.284l1.232-.01,1.251.01,2.476.081,2.424.107,1.206.081,1.2.12,1.174.088,1.173.126,2.32.3,2.275.334,1.128.188,1.141.226,1.083.208,1.115.233L557,228l2.139.557,1.056.289,1.057.334.266.055.266.026.026.227.078.2.1.191.123.188.13.145.155.143.175.117.22.136.039.029.039.081.019.071.019.143,2.042.733,2.016.775,2,.775,1.983.82,1.944.83,1.913.866,1.9.866,1.88.92.233.081.266.036.038.217.078.208.1.188.123.191.13.143.155.143.175.126.207.127.046.038.045.072.019.071.013.143.978.434.973.47.927.477.94.522.882.525.869.568.855.577.836.613.785.612.785.668.739.668.732.713.688.7.687.765.661.775.654.82.065.045.1.045.091.036.143.019-1.219,2.4-1.193,2.45L590,256.657l-1.141,2.506-1.154,2.495-1.109,2.525-1.1,2.561-1.076,2.589-.052.036-.026.006-.026.036h-.1v.01h-.11v.029l-.052.431-.026.434h10.248l.531-1.3.59-1.251.6-1.245.635-1.209.628-1.2.688-1.173.694-1.154.719-1.124.052-.082.084-.029.1-.026h.15l.622.046.285.045.3.081.253.062.272.1.234.108.24.145.208.117.2.162.356.37.169.191.162.214.124.217.143.263.038.026.072.045.078.026.136.01.37.891.389.911.343.921.363.946.668,1.912.648,1.983h9.535L614,265.032l-1.931-5.247-1.945-5.247-1.932-5.2-.078-.259-.013-.281.616-.82.648-.784.648-.785.694-.739.674-.739.732-.72.733-.713.752-.658.758-.687.8-.648.791-.632.83-.593.849-.607.862-.567.875-.568.9-.541.045-.062v-.045h.019l.039-.036v-.11h.007v-.107h.006l2.418-1.219,2.47-1.19,2.489-1.154,2.541-1.124.026-.029.026-.017.058-.065v-.107h.019v-.116h2.794l.674-.425.732-.4.771-.363.83-.334.83-.3.882-.262.94-.243.972-.182v-.035l.039-.046v-.2h.019l2.645-.424,1.315-.188,1.335-.153,1.3-.181,1.3-.143,2.586-.237,2.508-.2,1.251-.081,1.264-.055,2.451-.081,1.219-.006,1.238.006,2.385.02,1.173.035,1.193.055,1.154.052,1.167.082,1.141.09,1.154.136,2.243.234,1.109.136,1.115.172,2.185.369,1.082.208,1.1.233,2.094.461,1.031.253,1.044.288,1.011.269,1.037.3,1,.317,1.011.351,1.958.677.959.36.986.4,1.9.813.94.421.94.46,1.822.9.9.48.9.5,1.756,1.031.863.538.875.57,1.678,1.125.83.577.83.615,1.62,1.261.778.648.811.678.084.045.117.045.1.036.149.017,2.191,2.508L713,249.336l2.289,2.453,2.333,2.451.065.045.091.055.1.026.149.019-.058.153-.033.181-.058.334-.007.133.007.146.058.269.019.1.033.107.129.191.052.062.1.081.207.146.02.009.052.081.019.088.019.146.538.558.525.587,1.043,1.18.5.606.506.632.473.629.486.668.454.648.453.677.447.684.435.7.415.7.415.732.395.729.4.755.026.029.084.045.071.016.143.02v2.8l.091.117.052.181h20.788l-2.359-5.743-2.379-5.724-.143-.019-.084-.017-.078-.045-.026-.029-.136-.224-.13-.172-.136-.162-.143-.126-.188-.127-.2-.09-.194-.081-.208-.036Z" transform="translate(82.17)" fill="#00537c" fill-rule="evenodd"/>
    <path id="Path_47" data-name="Path 47" d="M546.892,244.825v-.143l.019-.081.026-.081.065-.026,1.426-.795,1.42-.729,1.446-.7,1.452-.622,1.452-.606,1.478-.542,1.465-.5,1.491-.444,1.478-.415,1.5-.36,1.511-.314,1.51-.253,1.523-.234,1.542-.181,1.523-.126,1.549-.062,1.543-.046,1.549.016,1.563.045,1.588.11,1.575.143,1.594.188,1.594.237,1.627.3,1.6.308,1.634.388,1.633.422,1.64.486,1.64.505,1.679.578,1.653.612,1.673.688v.107l.032.11.026.078.084.065.875.612.849.668.83.668.8.709.784.714.739.758.726.775.707.83.68.8.629.859.629.865.615.921.558.917.564.966.518.963.525,1.011v.269l.052.289.058.425.072.441v.1l.006.107.039.227.058.431.039.415v.091l.006.117.026.217.058.856-.019.191v.623l-.019.188v.622l-.046.785-.078.794-.026.081-.032.091-.013.188-.072.38-.032.081-.006.09-.039.188-.091.389-.194.72-.207.732-.084.162-.052.169-.124.344-.291.7-.344.668-.324.658H605.9l-.11.026-.11.036-.071.081-2.321,2.418-2.346,2.443-2.359,2.4-1.193,1.2-1.174,1.219h20.9l.6-.506.6-.5.291-.262.3-.253.583-.512.273-.279.285-.272.545-.541.538-.568.545-.557.013-.263.091-.243.4-.849.376-.856.35-.856.155-.424.182-.415.279-.856.259-.846.246-.859.22-.836.175-.859.149-.856.136-.846.11-.859.084-.856.052-.855.007-.846v-.425l.012-.415-.045-.885-.065-.865-.091-.846-.11-.856-.162-.866-.175-.859-.2-.856-.208-.856-.259-.885-.292-.856-.324-.846-.324-.859-.363-.891-.4-.846-.434-.858-.428-.856-.136-.009-.1-.036-.084-.045-.059-.052-.771-.931-.778-.9-.791-.9-.778-.875-1.647-1.721-1.672-1.659-.862-.839-.855-.8-.895-.814-.868-.775L608.99,234.6l-.92-.765-.914-.729-.26-.029-.233-.081-6.184-2.713-6.151-2.758-.558-.026-1.725-.207-1.685-.162-3.332-.263-3.312-.181-3.241-.072-3.208-.019-3.15.11L571,226.88l-1.53.133-1.51.155-3.021.351-2.956.46-2.93.515-1.439.3-1.406.344-2.82.719-2.781.794-1.367.434-1.355.457-1.342.48-1.309.512-.033-.26-.065-.252-3.546-8.654H520.8l.434.963.428.992.4,1.037.369,1.057.356,1.073.325,1.125.311,1.118.3,1.189.006.019.072.036h.071l.149.01v2.784l.207.046.188.116.142.136.065.081.078.117.039.091.032.126.019.127.039.162v.143l.012.172.019.362h.292v6.706l-.557,1.109-.493,1.138-.072.25-.012.288-.759.363-.687.431-.648.47-.558.557-.065.055-.039.107-.026.11v.143l-.376.074-.35.107-.681.243-.648.263-.584.324-.3.152-.273.189-.525.4-.486.425-.415.477h-.052v.016l-.039.039h-.032v.006l-.039.029h-.1v.017l-.13.019-.143.143-.11.181-.1.172-.065.2-.1.451-.039.253v.846l-3.4,2.975-3.331,3.057-3.267,3.082-1.614,1.569-1.588,1.6-3.177,3.189-3.1,3.273-3.046,3.319-1.5,1.666-1.472,1.714h11.681l1.3-1.432,1.329-1.417,1.329-1.406,1.361-1.361,1.349-1.371,1.4-1.336,1.413-1.332,1.439-1.3,1.432-1.306,1.439-1.261,1.458-1.274,1.485-1.235,1.491-1.235,1.517-1.2,1.53-1.2,1.569-1.17.084-.081.11-.029.279-.035.195.713.181.729.182.74.143.768.11.755.1.768.084.794.059.81.012.794v.82l-.012.82-.039.856-.09.84-.091.865-.11.875-.123.882-.059.272v.279l-.265.431-.24.461-.428.966-.22.486-.169.525-.3,1.069-.052.253v.289l-.24.029-.208.081-.207.081-.163.126-.175.127-.13.162-.123.172-.1.224-.046.035-.058.036h-.11v.019h-.116v.02l-.053.25-.039.126-.019.065v.081l-.123.522-.039.045-.006.065-.026.123-.078.252-.142.48H538l.214-.425.234-.415.48-.82.46-.856.48-.84.207-.441.214-.434.44-.866.428-.881.447-.875.4-.921.415-.9.4-.911.376-.921.376-.957.369-.927.356-.947.357-.956.019-.279.052-.272.181-1.125.091-.567.052-.289.078-.262.175-1.144.195-1.118.149-1.164.162-1.154.149-1.164.163-1.17.1-1.2.129-1.209.019-.315.027-.3.057-.606.02-.315.038-.3.065-.6.026-.632.013-.315.032-.308.1-1.235.052-1.245.039-.629.019-.325.033-.291Z" transform="translate(287.901 46.943)" fill="#00537c" fill-rule="evenodd"/>
    <path id="Path_48" data-name="Path 48" d="M505.543,243.106l-.26.035-.207.107-.195.081-.1.029h-.045v.026l-.032.026-.2.064-.214.062-.233.036-.13.009-.11.026-.252.029-.253.026-.013.127h-.019v.107l-.046.1-.045.091-1.782,1.614-1.744,1.649h15.55l.992-.46,1.063-.435.019-.259.091-.208.072-.155.11-.133.24-.237.285-.2.324-.162.337-.143.4-.09.428-.072.486-.009.019-.244.039-.074.052-.016.2-.127.169-.126.156-.146.065-.078.078-.065.11-.188.1-.191.065-.208.052-.223.136-.01.065-.019h.077l.117-.026.071-.02h.078l.635-.188.317-.1.162-.046.168-.026,1.3-.369,1.258-.389.641-.214.648-.181.616-.224.629-.207.616-.218.628-.217.616-.233.609-.217,1.225-.451.564.036.538.064.616.046h.311l.356.016h.357l.4.019.382-.019h.415l.843-.026.92-.065.991-.071v-.136l.02-.081.039-.072.052-.035.493-.244.538-.2.518-.2.578-.133.019-.237.039-.081.052-.016.2-.146.195-.126.039-.046.033-.036.11-.052.181-.145.162-.182.162-.152.052-.1.039-.045.046-.029.149-.179.026-.064.032-.046.071-.1.117-.191.1-.217.019-.072.026-.036.065-.1.032-.126.013-.065.032-.045.026-.137.019-.061.039-.046.065-.253.026-.126.019-.062.026-.045-.013-.289-.012-.026v-.246l-.078-.486-.052-.461-.072-.441-.11-.415-.123-.4-.13-.389-.136-.37-.149-.35-.2-.353-.188-.315-.227-.314-.214-.279-.253-.292-.253-.25-.292-.253-.285-.207-.571-.036-1.555-.117-1.537-.074-1.51-.01-1.465.065-1.439.071-1.406.163-1.368.207-1.322.263-1.316.288-1.276.36-1.245.415-1.225.477-1.193.506-1.154.57-1.115.619-1.062.7h-.02v.108h-.019v.107l-.019.035h-.026v.046l-.026.045-.227.1-.169.126-.162.126-.13.172-.123.162-.091.2-.084.217-.026.234-.265.016-.208.091-1.109.632-.551.324-.544.324-1.108.613-1.1.641-1.148.6-1.147.6-.578.289-.577.3-1.154.6h-.007v.107l-.039.11-.026.036h-.02v.045l-.052.062-.343.243-.3.263-.292.269-.26.308-.259.288-.234.344-.22.334-.188.37Z" transform="translate(341.52 78.233)" fill="#00537c" fill-rule="evenodd"/>
    <path id="Path_49" data-name="Path 49" d="M519.272,220.3h-4.453l-.453.253-.124.055-.11.052-.214.126-.486.227-.473.217-.5.2-.505.172-.545.162-.538.152-.272.027-.253.019-.065.224-.045.09-.026.117-.1.191-.11.189-.078.064-.065.081-.162.143-.169.117-.195.136-.058.026-.026.081-.02.074v.143l-2.923,1.928-2.846,2.013-2.813,2.045-2.742,2.119-2.7,2.146-2.651,2.216-2.6,2.263-2.522,2.326h14.28l2.379-2.307,2.418-2.272,2.411-2.255,2.457-2.217,2.45-2.236,2.509-2.172,2.5-2.191,2.534-2.126v-.055h.013l.019-.026v-.055h.026l.033-.026.032-.11v-.117h.019l-.453-.567-.428-.522-.473-.516-.467-.5-.091-.064-.09-.036-.1-.026Z" transform="translate(272.557 29.623)" fill="#00537c" fill-rule="evenodd"/>
    <path id="Path_50" data-name="Path 50" d="M507.416,223.372h-9.535l.415,1.449.415,1.507.012.019.065.026.084.016.143.01.09.7.052.343.065.37.208,1.422.162,1.391.162,1.406.123,1.377.02.334.038.344.052.7.039.658.012.334.039.35.071,1.361.039,1.306.032,1.335v1.3l-.019.315v.992l-.052,1.271-.064,1.28-.1,1.254-.09,1.261-.072.6-.071.623-.072.593-.064.623-.182,1.209-.188,1.2-.214,1.17-.13.587-.116.6-.136.567-.124.587-.272,1.18-.324,1.119-.3,1.118-.351,1.119-.376,1.1-.382,1.073-.408,1.1-.447,1.053-.448,1.063-.1.237-.019.269-.972.84-.9.911-.862.972-.415.506-.383.542-.072.035h-.038v.026l-.032.026-.11.029h-.1v.017l-.6-.522-.544-.532-.512-.6-.473-.577-.48-.648-.421-.649-.415-.687-.363-.71-.363-.739-.317-.777-.3-.8-.266-.83-.253-.865-.208-.865-.2-.93-.142-.927-.033-.026-.052-.029-.1-.009h-.1l-.272-1.468-.215-1.488-.226-1.5-.175-1.517-.194-1.549-.136-1.553-.143-1.585-.1-1.588-.11-1.621-.058-1.624-.072-1.65-.026-1.665-.033-1.7.013-1.7.019-1.73.046-1.731v-.57l.22-.613.1-.314.045-.163.058-.145.039-.169.045-.156.091-.324.162-.674.019-.192.032-.171.058-.35.046-.379.064-.36.039-.4.038-.379.065-.775V226.4l.59-1.523.648-1.5H475.5l-.447,4.713-.033.263v.288l-.233.046-.182.116-.168.136-.117.2-.052.091-.039.126-.046.289-.019.315.019.36h-.272l-.162.823-.117.846-.227,1.669-.11.826-.078.83-.078.83-.052.84-.11,1.63-.045,1.624-.02,1.614.052,1.614.058,1.585.117,1.588.065.765.091.794.2,1.578.24,1.539.292,1.552.136.755.175.778.181.755.195.775.019.019.065.026h.078l.143.019v2.785l.415,1.381.46,1.361.453,1.342.506,1.335.512,1.3.531,1.3.558,1.271.584,1.264.57,1.215.609,1.229.623,1.179.661,1.189.668,1.138.694,1.144.713,1.118.752,1.109h15.388l.726-1.381.337-.694.181-.344.182-.34.706-1.406.694-1.417.655-1.462.648-1.459.642-1.477.3-.759.324-.749.279-.775.3-.758.577-1.549.273-.794.266-.775.544-1.588.506-1.6.506-1.63.486-1.64.467-1.669.084-.046.077-.016h.143l.162-3.481.039-1.74.039-1.705v-1.737l-.02-1.715-.039-1.7-.046-1.711-.188-3.416-.253-3.381-.343-3.39-.214-1.676-.22-1.679-.032-.577-1.083-3.027Z" transform="translate(190.695 46.943)" fill="#00537c" fill-rule="evenodd"/>
    <path id="Path_51" data-name="Path 51" d="M500.424,251.388l-.059.039h-.052v.026l-.033.026-.11.029h-.11v.026l-.032.253-.012.253-.033.107-.013.126-.032.234-.058.1-.013.108-.071.207-.032.029h-.007V253l-.039.091-.09.191-.084.207-.032.27-1.3,1.416-1.251,1.478-1.244,1.478-1.206,1.523-1.212,1.523-1.18,1.549-1.16,1.569-1.141,1.588-.052.055h-.052v.017l-.019.029-.13.035h-.1v.007l-.22.48-.071.107-.032.136-.091.253-.136.217-.064.107-.046.127-.227.476-.265.444-.253.441-.071.1-.078.107-.123.217-.071.1-.065.116-.136.217-.149.192-.084.1-.064.11-.149.188-.071.1-.072.107-.317.379-.318.379-.343.35-.351.343-.188.162-.1.081-.083.091-.344.334-.091.042-.1.045-.136.039-.124.016-1.8,2.956-.453.733-.454.739-.881,1.488h13.016l.059-.162v-.146l.007-.026.227-.065.091-.045.116-.036.188-.09.181-.107.071-.082.072-.061.071-.081.072-.065.129-.181.123-.179.02-.071.084-.029.1-.036h.143l.4-.927.415-.9.473-.871.486-.82.518-.813.564-.765.577-.749.628-.693.052-.082.091-.029.11-.035h.143v-.279l.039-.253.071-.467.052-.217.072-.191.181-.35.019-.064.026-.042.013-.064.032-.046.039-.126.013-.127.473-.577.233-.279.253-.269.487-.587.467-.567.441-.606.448-.594.207-.317.22-.3.2-.318.227-.295.188-.334.207-.318.188-.334.207-.314.37-.658.389-.648.35-.7.344-.677.324-.7.363-.694.09-.253.033-.252,3.714-4.525,1.886-2.226,1.912-2.2,3.844-4.378,1.951-2.175,1.964-2.126,1.964-2.155,2-2.119,4.045-4.2,2.035-2.081,2.055-2.055,2.068-2.039,2.1-2.01h-14.28l-1.691,1.559-1.659,1.6-1.64,1.614-1.607,1.659-1.594,1.656-1.562,1.7-1.549,1.715-1.517,1.746-1.51,1.75-1.472,1.776-1.452,1.811-1.407,1.848-1.426,1.847-1.375,1.886-1.361,1.9-1.335,1.944Z" transform="translate(235.406 46.943)" fill="#00537c" fill-rule="evenodd"/>
    <path id="Path_52" data-name="Path 52" d="M488.181,232.022l-.285.039h-.13l-.129.016-.156.188-.091.09-.052.117-.162.191-.084.091-.064.117-.084.081-.091.09-.149.188-.331.343-.389.325-.376.314-.415.289-.408.262-.117.036-.072.01-.052.035h-.078l-.052.02-.136.006-.441.895h16.1v-.642l-.039-.541-.052-.279-.071-.234-.072-.236-.091-.208-.116-.224-.11-.188-.143-.172-.143-.145-.175-.153-.181-.126-.195-.117-.208-.081-.064-.036-.039-.081-.007-.117v-.11l-.551-.162-.538-.172-.525-.207-.506-.234-.071-.045-.033-.081-.013-.091v-.107h-5.011l-.317.172-.324.169-.324.165-.331.152-.188.046-.175.061-.188.055-.181.056-.4.1-.382.071Z" transform="translate(252.297 89.82)" fill="#00537c" fill-rule="evenodd"/>
    <path id="Path_53" data-name="Path 53" d="M532.942,240.207l.013-.061.032-.046.019-.061.039-.055.013-.127.019-.126,1.666-2.074,1.691-2.01,1.731-2,1.744-1.945H528.229l-2.139,2.45-2.1,2.48-2.068,2.505-2.042,2.544-2.035,2.541-1.964,2.616-1.952,2.612-1.912,2.661-.123.2-.019.272-.6.234-.6.243-.324.091-.143.055-.149.061-.622.218-.648.188-.622.191-.674.162-.174.026-.163.055-.3.088-.285.039h-.149l-.123.017-.953-.415-.921-.379-.979-.36-.96-.334-1-.35-.992-.324-1-.289-1.011-.281-.272-.046-.272-.006-.771-.714-.739-.729-.726-.778-.337-.4-.324-.4-.655-.859-.3-.441-.285-.424-.577-.917-.532-.94-.045-.062-.065-.026-.11-.019h-.117l-.071-.911-.052-.875v-.836l.052-.795.071-.758.117-.713.065-.341.09-.324.208-.613.026-.146.039-.126v-.082l.013-.061.019-.127.162-.262.22-.243.214-.234.253-.208.252-.207.285-.172.609-.3.635-.253.363-.117.37-.071.389-.081.4-.055.408-.026h1l.3-.156.072-.052.071-.029.162-.061.292-.163.3-.162.26-.181.272-.2.253-.2.259-.191.215-.243.226-.217.091-.133.058-.055.052-.055.11-.116.032-.072.071-.045.02-.081.052-.062.091-.126.2-.253.162-.289.033-.081.058-.055.091-.126.032-.136.019-.052.039-.055V232.1l.006-.064.007-.117.039-.224h-16.1l-.558,1.089-.525,1.118-.506,1.173-.447,1.215-.058.036-.033.029h-.11v.016h-.1v.019l-.208,1.008-.136,1.011-.117,1-.045.486-.019.512-.046.956.007.982.058.966.078.972.11.911.143.94.188.917.234.911.272.894.3.9.155.422.188.453.4.872.071.226.032.27,1.537,1.507,1.523,1.559,1.465,1.568,1.478,1.614.039.081.052.107.032.126.006.146,1.206.432.59.236.583.269,1.108.551.513.3.544.334.208.081.278.038.409.532.44.547.448.525.473.522.953.983.506.48.538.466.058.055.046.09.006.117.026.136-.434,1.206-.24.6-.22.623-.487,1.2-.505,1.215-.557,1.174-.149.279-.084.146-.064.162-.279.593-.623,1.183-.311.583-.3.6-.687,1.134-.694,1.154-.375.561-.363.567-.739,1.144-.81,1.1-.811,1.108-.862,1.089-.862,1.109-.084.081-.032.11-.026.107v.146l-.681.622-.629.648-.628.648-.577.678h16.426l2.2-4.337,2.217-4.291,2.269-4.256,2.295-4.22v-.007h.1l.11-.038.11-.042.091-.055.467-.506.46-.505.442-.538.453-.534.246-.036.13-.026.052-.02h.084l.641-.269.655-.243.687-.217.713-.188,1.439-.363.739-.162.778-.127.759-.133.791-.12,1.64-.169,1.7-.126.861-.036h.9v-.281l.162-.017h.181l.156-.019h.149l.13-.026.071-.02h.071l.052-.035.058-.016.123-.029.039-.045.052-.036.09-.061.027-.046.045-.036.091-.064.038-.091.072-.1.032-.11.039-.088.253-.02.265-.035,1.764-.47,1.737-.5.855-.26.868-.253.4-.146.434-.133.856-.253.823-.3.836-.288.4-.153.408-.136.83-.289,1.614-.612,1.594-.642,1.549-.684.759-.36.778-.344,1.51-.729,1.478-.739.343-.217.383-.182.719-.385.7-.408.739-.4.687-.431.72-.408.324-.224.363-.2.687-.415v-.146l.033-.09.038-.081.052-.046.759-.558.778-.541.764-.551.37-.279.194-.143.2-.126.74-.6.739-.567.719-.587.181-.153.182-.136.389-.288.694-.613.35-.324.168-.153.194-.146.68-.638.694-.616.668-.658.155-.169.169-.165.363-.315.648-.668.661-.648.61-.694.642-.684.142-.181.149-.181.324-.35.609-.694.59-.723.6-.729.285-.389.143-.179.156-.181.59-.723.123-.214.143-.182.292-.389.538-.755.545-.769.557-.765.506-.811.519-.784.506-.814.253-.4.129-.208.143-.188H559.888l-.214.512-.233.515-.039.016-.019.029-.032.062-.058.136-.123.253-.292.451-.1.207-.039.269-.655.795-.649.784-.661.775-.668.794-.7.749-.687.758-.719.729-.2.172-.162.188-.351.379-.751.694-.376.353-.181.169-.182.191-.752.7-.758.684-.8.668-.771.668-.415.314-.2.153-.195.181-.784.658-.227.145-.2.162-.415.315-.215.143-.22.165-.415.315-.842.6-.22.143-.208.162-.4.308-.895.567-.441.289-.214.143-.22.162-.881.551-.881.567-.473.253-.24.127-.226.145-.921.542-.467.25-.234.126-.233.146-.473.253-.234.126-.214.143-.253.11-.246.127-.48.25-.246.11-.24.126-.473.253-.979.477-.959.476-.071.02-.039.071-.007.243-.752.218-.356.1-.33.091-.68.142-.616.108-.622.045-.551.029-.285-.036-.253-.019-.486-.081-.253-.081-.227-.065-.421-.169-.4-.236-.363-.253-.331-.334-.3-.35-.272-.406-.214-.45-.059-.117-.032-.12-.019-.25.071-.065.026-.035.013-.01h.032l.162-.1.129-.11.143-.1.11-.12.124-.116.214-.269.084-.152.1-.146.182-.314.123-.354.058-.188.072-.172.019-.288v-.136l.012-.133.227-.065.208-.055.188-.1.194-.11.058-.081.084-.062.143-.162.13-.171.123-.188.02-.064.071-.026.234-.02,1.134-2.216.577-1.093.616-1.063,1.264-2.08,1.3-2.013Z" transform="translate(249.825 93.886)" fill="#00537c" fill-rule="evenodd"/>
    <path id="Path_54" data-name="Path 54" d="M495.607,282.146l-.019.117-.007.071v.072l-.032.055-.012.064-.033.124-2.094,4.32h13.781l1.938-4.174,2-4.146,1.983-4.129,2.035-4.094V270.4h.11v-.007h.111l.032-.029v-.016h.046l.026-.036v-.019h.045l.48-.613.486-.6.227-.318.11-.162.136-.136.467-.6.441-.632.461-.629.441-.651.441-.629.415-.688.434-.658.181-.35.091-.182.123-.152.408-.668.37-.694.4-.694.389-.713.37-.694v-.019h.123l.11-.036.033-.026v-.019h.039l.071-.046.9-1.342.94-1.28,1.011-1.254,1.05-1.189,1.1-1.154,1.135-1.089,1.186-1.057,1.245-.982.039-.269.11-.207.072-.192.033-.09v-.052h.019l.039-.029.052-.208.071-.2.026-.243.013-.126.032-.107.02-.253.038-.253.124-.026v-.01h.11l.033-.029v-.016h.038l.032-.036v-.019h.059l1.6-1.812,1.653-1.776,1.659-1.767,1.692-1.73,1.7-1.721,1.737-1.685,1.73-1.689,1.783-1.64.117-.016.136-.01.045-.035.065-.02.045-.026.065-.019.953-.648,1.038-.586,1.057-.577,1.114-.512h-15.55l-2.93,2.784-2.865,2.849-2.813,2.885-2.775,2.949-2.722,2.976-2.69,3.018-2.632,3.066-2.58,3.137-.013.127-.039.126-.019.046-.026.061-.026.046-.02.064-.1.163-.09.2-.072.182-.045.224-.084.46-.026.253v.289h-.143l-.1.026-.091.029-.052.081-.921,1.027-.881,1.089-.83,1.128-.811,1.154-.778,1.189-.725,1.219-.714,1.241-.648,1.3h-.149l-.1.035-.11.036-.052.072-.5.5-.434.515-.422.558-.363.616-.37.619-.311.652-.3.674-.246.74h-.143l-.09.035-.091.039-.052.071-.778.921-.356.477-.337.505-.35.487-.3.522-.61,1.093-.292.541-.272.567-.486,1.189-.473,1.219-.376,1.28-.233.017-.072.026-.019.064-.129.188-.129.172-.137.162-.084.065-.064.081-.188.107-.189.091-.207.071-.227.065Z" transform="translate(306.262 93.886)" fill="#00537c" fill-rule="evenodd"/>
    <path id="Path_55" data-name="Path 55" d="M560.371,235.828l.091-.606.143-.558.162-.532.181-.489.189-.5.246-.46.233-.441.285-.4v-.052h.019l.02-.029.032-.062H548.956l-1.154,1.776-1.134,1.782-1.174,1.77-1.173,1.776-1.206,1.737-1.173,1.74-.629.856-.6.865-1.206,1.731-.058.038H539.4v.017l-.039.035-.1.029h-.11v.017l-.506,1-.506.992-.538.972-.273.47-.252.487-.279.46-.26.477-.558.947-.589.921-.583.92-.318.425-.3.441-.629.882-.635.859-.648.855-.68.82-.667.84-.694.8-.694.814-.1.052-.1.036h-.11v.029l-.123.009-.383,1.008-.376,1.018-.4.976-.207.476-.188.487-.091.243-.019.263-.9.849-.868.866-.843.9-.8.963-.8.966-.745,1.008-.7,1.037-.687,1.093-.065.045h-.045v.017l-.032.029-.11.035h-.11v.017l-.214.57-.246.568-.253.557-.253.532-.291.506-.162.233-.149.253-.3.48-.344.477-.375.424-.383.415-.194.188-.2.207-.415.4-.434.34-.467.354-.467.314-.473.318-.13.035-.064.007-.046.039h-.084l-.058.007-.116.029-.389-.218-.337-.217-.324-.233-.3-.234-.3-.288-.278-.289-.26-.3-.24-.318-.065-.081-.084-.026-.1-.036h-.11l-.195-.47-.182-.45-.214-.441-.181-.406-.227-.434-.22-.4-.24-.4-.233-.36-.266-.38-.278-.35-.545-.677-.609-.649-.622-.587-.117-.081-.091-.026-.136-.036h-.1l-.428-.93-.427-.9-.46-.875-.487-.82-.518-.81-.558-.775-.583-.739-.622-.713-.079-.065-.084-.036-.1-.035h-.129l-1.173-2.127-1.18-2.094-1.219-2.064-1.219-2.045-1.251-2.039-1.264-2-1.3-1.974-1.3-1.928-.078-.11-.026-.107-.032-.136v-.117l-.24-.065-.208-.071-.2-.091-.162-.107-.169-.143-.129-.165-.124-.169-.1-.191-.039-.062-.084-.035-.091-.01h-.117l-.343-.937-.363-.9-.382-.881-.383-.839-.421-.855-.428-.811-.46-.8-.46-.759-.058-.107-.032-.116-.02-.253-.538-.389-.492-.422-.487-.425-.448-.45-.44-.5-.4-.522-.4-.534-.35-.557-.058-.062-.084-.029-.1-.016h-.11l-.434-1.128-.467-1.057-.279-.522-.265-.487-.564-.937H468.76l3.215,6.291,3.241,6.284,1.627,3.1,1.659,3.118,3.339,6.214,1.672,3.063,1.685,3.092,3.4,6.123,3.429,6.068,3.5,6.057.071.217.039.259.227.036.194.074.189.1.194.126.142.127.143.162.123.172.11.207.033.045.078.046.1.016.136.02,1.018,2.11.493,1.053.505,1.093h33.1l1.07-2.434,1.083-2.444.019-.117.019-.071.033-.046v-.081l.019-.055.02-.136.214-.061.091-.046.11-.036.2-.09.188-.107.064-.081.078-.065.143-.162.117-.172.136-.188.013-.065.09-.026.233-.026.927-2.227.966-2.2.979-2.2,1.011-2.162,1-2.175,1.05-2.126,1.044-2.135,1.063-2.084,1.083-2.11,1.109-2.071,1.109-2.058,1.141-2.019,1.135-2.025,1.173-1.993,1.186-2,1.219-1.954.026-.127.02-.064.032-.052.019-.117v-.12h.013l.22-.052.091-.055.11-.026.2-.1.175-.107.071-.082.078-.064.143-.162.123-.172.11-.188.038-.065.078-.026.246-.019.337-1.044.383-1.018.791-1.977.81-1.938.894-1.893.084-.253.032-.25.22-.055.084-.055.123-.026.189-.1.181-.107.072-.081.071-.065.143-.162.13-.172.124-.188.019-.062.077-.029.246-.016Z" transform="translate(167.292 93.886)" fill="#00537c" fill-rule="evenodd"/>
    <path id="Path_56" data-name="Path 56" d="M489.876,231.923l.143-.224H474.631l.467.729.5.723.506.719.538.7.052.055.091.036.11.036.142.019v.25l.033.253.078.46.052.208.078.207.175.37.091.217.039.126.012.136,1.485,1.034,1.419,1.057.078.045.117.052.11.029.143.017.726-.26.35-.136.37-.127.324-.162.35-.136.662-.314.3-.2.3-.172.311-.191.324-.169.265-.208.312-.191.265-.224.292-.2.518-.477.24-.253.253-.233.214-.273.246-.252.454-.538.194-.308.207-.279.189-.3.207-.289.162-.314.195-.3.344-.649.038-.074.072-.026.091-.01Z" transform="translate(200.391 93.886)" fill="#00537c" fill-rule="evenodd"/>
    <path id="Path_57" data-name="Path 57" d="M640.584,242.875l-.065.045h-.045v.007l-.032.039-.11.036h-.11v.007l-.4.768-.389.775-.765,1.513-.4.749-.4.759-.811,1.488-.836,1.452-.836,1.458-.862,1.417-.869,1.432-.111.2-.026.281-.155.117-.091.062-.052.081-.291.253-.312.243-.3.217-.072.017-.039.029-.072.016-.052.039-.123.026-.13.016-.019.217-.019.227-.039.208-.012.214-.065.191-.045.2-.065.172-.045.188-.1.146-.084.152-.084.146-.091.143-.136.11-.11.123-.143.091-.116.117-.136.045-.065.019-.045.036-.136.026h-.1v.01l-1.452,2.317-1.452,2.308-1.5,2.3-1.458,2.308-.758,1.119-.745,1.144-1.511,2.282-.1.116-.091.146-.2.279-.376.577-.759,1.138-1.517,2.262-.071.046h-.039v.016l-.033.036-.1.009h-.11v.02l-.759-.7-.732-.7-.719-.723-.7-.713-1.374-1.5-.667-.775-.629-.778-.649-.82-.622-.8-1.18-1.679-.589-.871-.545-.865-.563-.9-.519-.891-.064-.062-.084-.029-.1-.016h-.11l-.7-1.624-.707-1.6-.746-1.568-.784-1.513-.8-1.507-.843-1.468-.869-1.442-.882-1.406-.071-.081-.071-.029-.111-.035H600.6V249.15l1.14-2.256.552-1.144.57-1.128.538-1.154.552-1.134,1.082-2.307h-33.1l.96,2.2.966,2.256.947,2.271.927,2.324.026.02.078.026.078.009.143.02v2.8l-.843,1.676-.817,1.675-.856,1.659-.856,1.659-.888,1.614-.875,1.62-.927,1.588-.914,1.6-.946,1.549-.953,1.552-.978,1.533-.979,1.533-1.011,1.488-1.018,1.484-1.043,1.481-.519.719-.506.749-.117.2-.026.272-.3-.02H560.4l-.486-.061-.454-.11-.4-.162-.369-.218-.3-.269-.272-.334-.11-.188-.078-.191-.052-.062-.045-.036-.091-.009h-.117l-.026-.279-.02-.253-.077-.47-.143-.425-.078-.188-.078-.162-.084-.107-.026-.11-.031-.127V273.7l-.461-.334-.408-.35-.415-.38-.363-.379-.376-.425-.331-.421-.337-.47-.285-.47-.065-.072-.083-.026-.214-.009-.123-.613-.149-.542-.162-.541-.169-.5-.2-.5-.22-.46-.253-.444-.252-.4-.084-.117-.032-.117-.033-.126V265.9l-1.1-1.523-1.083-1.543-1.076-1.553-1.043-1.549-2.074-3.163-1-1.6-.979-1.594-1-1.649-.966-1.624-.966-1.656-.927-1.65-1.86-3.374-.9-1.7-.869-1.695H520.464l.382.794.357.82.162.386.175.415.331.83.292.784.265.82.253.83.24.821.182.794.175.82.162.81.143.823.1.791.1.82.059.823.045.82v.791l-.012.191v.613l-.032.794-.046.82-.078.794-.1.826-.13.794-.142.821-.168.784-.195.814-.22.791-.24.824-.265.791-.279.82-.635,1.608h-.013v.117l-.026.1-.026.029h-.013v.046l-.039.042-.2.12-.142.133-.11.181-.065.234-.045.237v.3l.045.334.078.36h-.143l-.1.036-.078.029-.046.062-.525.668-.506.687-1.043,1.332-.532.648-.531.668-1.07,1.3-.57.613-.558.632-1.128,1.251-.59.606-.577.613-1.167,1.205-.609.571-.609.583-1.231,1.137-1.264,1.128-.648.531-.635.558-.661.522-.648.535L504,285.089l-1.367,1.011-.687.5-.687.506-.013-.146-.013-.091-.052-.081-.026-.016-.415-.208-.382-.181-.356-.227-.337-.224-.331-.253-.3-.253-.3-.279-.253-.279-.032-.262-.078-.243-.661-1.5-.35-.739-.35-.719L496.247,280l-.791-1.345-.855-1.316-.441-.649-.447-.613-.946-1.219-.986-1.154-.026-.269-.084-.217-.83-1.549-.83-1.543-1.64-3.073-3.3-6.177-.136-.017-.078-.019-.078-.045-.032-.036-.11-.217-.123-.172-.143-.162-.143-.124-.195-.126-.195-.1-.2-.081-.227-.026-.026-.272-.079-.217-1.283-2.641-1.232-2.648-1.219-2.67-1.186-2.7-.142-.01-.1-.026-.078-.045-.013-.036-.129-.217-.124-.172-.142-.153-.143-.136-.188-.116-.194-.108-.2-.074-.227-.036-.013-.259-.032-.253-.13-.434-.1-.386-.149-.4-.143-.37-.331-.713-.376-.648-.448-.613-.492-.557-.265-.272-.266-.234-.589-.424-.032-.269-.078-.236-.791-1.377H455.883l.052.279.072.314.032.334.032.389h.1l.116.026.078.036.058.081.435.6.467.587.48.568.525.557.505.516.545.532.557.486.584.486.026.253.026.11.065.133,1.1,2.281,1.115,2.308,2.184,4.624,1.05,2.334,1.083,2.353,1.057,2.363,1.069,2.388,2.029,4.761,2.022,4.823,1.984,4.848,1.944,4.923h.11l.1.02.084.026.039.071.09.182.136.178.13.155.169.143.162.11.2.1.208.064.24.062,1.115,2.506.57,1.228.609,1.251,1.212,2.453.623,1.215.648,1.235h24.042l.046-.1.058-.071.11-.165.1-.2.045-.088.065-.084.071-.2.072-.188.059-.227.038-.117.046-.09.032-.279v-.143l.02-.126,1.186-1.76,1.238-1.7,1.245-1.685,1.3-1.63,1.3-1.634,1.342-1.584,1.348-1.559,1.406-1.533,1.406-1.533,1.439-1.478,1.472-1.471,1.5-1.4,1.5-1.416,1.568-1.371,1.569-1.341,1.614-1.316.078-.084.117-.026.1-.036h.149l.609.334.3.182.3.2.544.431.558.46.486.487.467.525.2.269.22.3.415.623.045.026.072.055.1.01.136.016.953,2.172.985,2.145.992,2.119,1.037,2.12,1.018,2.09,1.076,2.074L543,287.351l1.122,2.048.084.218.032.269.22.026.208.081.188.1.182.127.149.126.143.153.124.171.129.224.019.029.072.055.1.017.143.009-.045.334v.632l.032.3.026.273.072.259.065.253.09.253.1.207.123.218.13.171.168.169.156.146.194.136.207.133.24.117.045.029.013.01.032.045.013.081.026.143v.4H575.18l.9-1.819.966-1.786,1-1.76,1.024-1.712,1.057-1.685,1.1-1.669,1.115-1.63,1.154-1.595.052-.074.078-.036.091-.035h.149l.233-1.083.136-.532.182-.486.35-.966.422-.9.453-.866.519-.81.551-.759.3-.37.324-.333.072-.072.11-.036.11-.026h.143l.745.493.713.534.687.548.655.623.616.613.583.651.557.674.551.749.5.739.467.785.434.8.415.855.376.865.363.9.3.937.3.966.078.253.013.288.233.026.2.082.182.081.2.126.143.126.142.153.124.172.11.227.026.026.084.055.1.016.136.01,1.011,2,.512.957.551.982.538.937.57.946,1.193,1.838h27.432v-.953l.8-1.886.856-1.828.849-1.811.9-1.8.9-1.786.94-1.756.952-1.74.992-1.7.979-1.7,1.031-1.669,1.037-1.64,1.083-1.614,1.083-1.614,1.1-1.588,1.115-1.559,1.173-1.513.052-.082.09-.035.091-.029h.143l1.73,1.371.83.713.869.74.823.729.817.769.791.755.8.795.759.768.784.81,1.5,1.659,1.458,1.695,1.406,1.747,1.342,1.8,1.31,1.847,1.25,1.883,1.219,1.948,1.154,1.973.557,1.012.571,1.043.512,1.038.545,1.056.505,1.063.519,1.089h27.011l2.845-7.1,2.885-7.042,2.93-6.994,2.994-6.923,2.982-6.906,3.066-6.816,3.073-6.777,3.137-6.725H704.977l-1.154,2.434h-.143l-.071.016-.091.029-.019.062-.136.191-.117.169-.143.162-.09.065-.058.081-.194.107-.182.1-.214.062-.22.065-.019.126-.013.062v.074l-.019.052-.019.065-.033.126-1.3,2.6-1.258,2.623-2.509,5.3-2.47,5.325-1.206,2.7-1.193,2.713h-.143l-.071.029-.091.026-.019.062-.13.191-.116.171-.143.163-.078.061-.065.081-.188.11-.182.091-.129.036-.091.045-.214.062-.032.253-.032.126-.032.143-.648,1.614-.661,1.614-.687,1.578-.674,1.585-.713,1.553-.719,1.549-.739,1.517-.74,1.523L683.988,281l-.791,1.472-.81,1.458-.8,1.446-.835,1.432-.83,1.413-.888,1.4L678.167,291l-.292-.026-.252-.055-.661-.288-.655-.334-.629-.37-.3-.191-.26-.188-.557-.431-.272-.237-.233-.214-.487-.49-.434-.531-.019-.136-.032-.127-.091-.214-.175-.363-.078-.2-.039-.2-.091-.477-.032-.253v-.253l-.149-.016-.1-.036-.091-.039-.058-.052-.972-1.28-.934-1.3-.9-1.342-.869-1.345-.849-1.406-.81-1.413-.771-1.452-.739-1.468-.149-.019-.078-.019-.064-.026-.02-.036-.071-.191-.072-.153-.162-.3-.11-.143-.09-.116-.208-.2-.143-.11-.117-.081-.285-.143-.182-.065-.162-.036-.324-.045-.019-.143-.026-.11-.046-.107-.058-.081-.739-.966-.68-.982-.648-1.027-.616-1.028-.615-1.1-.557-1.082-.525-1.154-.486-1.154-.143-.019-.11-.017-.084-.045-.058-.055-.862-1.053-.811-1.083-.778-1.118-.376-.578-.356-.56-.714-1.206-.336-.613-.331-.606-.609-1.245-.577-1.286v-.01h.11v-.019h.1l.039-.036v-.009h.032l.058-.036,1.659-3.543,1.711-3.517,1.711-3.507,1.79-3.478H642.723l-.578.668-.525.71-.544.7-.492.769Z" transform="translate(94.695 140.829)" fill="#00537c" fill-rule="evenodd"/>
    <path id="Path_58" data-name="Path 58" d="M605.97,248.355H578.538l1.05,1.533,1.122,1.533.052.081.052.11.032.107.007.143-.506,1.3-.513,1.3-.551,1.264-.577,1.251-.6,1.219-.616,1.209-.642,1.164-.324.568-.324.587-.68,1.125-.726,1.109-.719,1.073-.74,1.083-.791,1.018-.8,1.037-.817.992-.842.982h-.052v.01l-.02.036h-.052v.019l-.038.026-.1.036-.13.019-.162.551-.149.538-.1.252-.045.127-.026.146-.195.505-.22.476-.124.217-.071.117-.039.117-.253.45-.252.425-.163.188-.071.091-.071.117-.318.379-.1.072-.072.1-.162.188-.324.353-.389.315-.37.308-.415.279-.415.262-.253.081-.253.036-.713-.648-.648-.661-.623-.72-.285-.36-.285-.363-.279-.415-.253-.4-.253-.415-.221-.406-.239-.441-.208-.424-.207-.461-.169-.441-.052-.145-.013-.133-.012-.262-.655-.648-.615-.641-1.187-1.326-.577-.693-.563-.694-.551-.729-.519-.713-.064-.081-.078-.029-.11-.026h-.117l-.771-1.413-.726-1.427-.733-1.442-.674-1.452-.7-1.487-.654-1.488-.623-1.514-.6-1.523-.084-.262-.012-.269.94-2.065.992-2H523.952v2.959l-.558,1.109-.493,1.134-.065.252-.013.289-.24.029-.207.081-.2.1-.175.116-.175.136-.123.153-.129.181-.1.217-.045.036-.065.036h-.1v.026h-.123v.01l-.026.252-.013.253-.045.224-.032.243-.065.2-.064.208-.078.188-.084.188-.1.208-.032.272-1.958,2.577-1.918,2.615-1.9,2.622-1.866,2.651-1.874,2.661-1.827,2.7-1.815,2.707-1.776,2.748-.11.208-.032.107v.146l-.571.557-.57.532-.6.516-.317.233-.3.253-.331.217-.311.243-.668.441-.694.415-.363.191-.35.2-.124.036-.071.016-.045.029-.253.036-.454-.081-.4-.091-.363-.143-.175-.081-.143-.084-.291-.223-.149-.117-.1-.117-.214-.3-.169-.315-.052-.065-.058-.026-.117-.019h-.11l-1.659-3.614-1.659-3.572-1.679-3.578-1.673-3.533-1.73-3.552-1.724-3.516-1.737-3.507L483.53,253.1l-.046-.062-.064-.026-.111-.035h-.1v-3.886l.253-.162.1-.091.124-.081.227-.2.09-.11.117-.09H460.077l1.5,2.768.778,1.381.8,1.387,1.634,2.732,1.7,2.722.487.795.512.81.473.795.233.389.253.4.927,1.585.882,1.588.409.755.408.778.791,1.549.733,1.513.7,1.523.629,1.488.6,1.478.532,1.462.505,1.462.447,1.413.428,1.436.174.684.189.719.155.687.078.36.1.36.259,1.361.214,1.355.078.664.1.687.065.658.039.334.039.35.032.648.052.661v.315l.013.334.032.668-.013.629v.652l-.019.638-.013.315v.334l-.071.613-.039.632-.052.308-.032.3-.059.632-.11.613-.1.613-.117.6-.058.3-.045.318-.163.586-.142.6-.156.586-.162.594-.37,1.173-.415,1.17h36.994l.143-.2.156-.171.143-.189.162-.171.129-.208.136-.188.273-.379.11-.217.129-.208.214-.431.208-.444.207-.441V300.3l.02-.062.026-.127.032-.253.409-.288.415-.279.194-.155.09-.081.11-.062.4-.325.35-.343.351-.37.331-.369.317-.389.046-.081.1-.026.11-.036h.136l.745-2.019.4-.982.428-.949.032-.133.013-.055.032-.055v-.071l.019-.071.019-.117.9-1.27.927-1.235,1.9-2.417,1.944-2.369,2.022-2.292,2.062-2.271,2.132-2.2L534.1,276.4l2.243-2.071.064-.082.111-.029.11-.036h.142l.921,1.118.921,1.183.9,1.18.914,1.251.888,1.254.9,1.28.862,1.316.888,1.352.85,1.381.843,1.406.843,1.442.856,1.468.81,1.487.817,1.533.8,1.569.823,1.594.084.236.032.27-.032.434-.019.431-.046.415-.032.415-.058.38-.065.395-.039.082-.013.09-.032.188-.078.38-.065.162-.026.081-.02.091-.11.353-.124.315-.129.314-.162.282-.162.3-.084.126-.059.065-.026.071-.156.289-.11.208-.039.269-.389.191-.363.233-.35.253-.318.3H582.1l-1.018-1.387-.492-.72-.46-.713-.9-1.513-.434-.778-.4-.775-.039-.062-.078-.029-.123-.026h-.1v-3.354l1.206-1.919,1.219-1.938.583-.976.6-.972.583-.972.609-.966.577-1,.577-.982,1.154-1.954,1.134-1.993,1.147-1.993.026-.126.013-.072.038-.035v-.082l.02-.064.007-.133,1.445-1.75,1.485-1.721,1.5-1.7,1.569-1.659.052-.1.039-.088.039-.12.013-.124,1.218,1.235,1.219,1.261,1.2,1.27,1.186,1.3,1.154,1.286,1.154,1.335,1.147,1.326,1.115,1.38,1.1,1.361,1.07,1.387,1.063,1.416,1.063,1.432,1.031,1.422,1.011,1.452.991,1.468,1.012,1.517.083.2.033.126.007.143,1.037,1.238,1.011,1.261,1,1.271.973,1.316.959,1.306.953,1.345.914,1.351.907,1.387h32.274l1.3-4.333,1.322-4.255,1.348-4.21,1.387-4.129,1.368-4.109,1.406-4.042,1.426-3.983,1.459-3.922,2.1-5.624,2.158-5.591L669,253.874l2.2-5.519H644.189l.719,1.634.706,1.685.687,1.695.661,1.757.013.029.064.026.078.026.142.01V258l-.369.982-.337.982-.382.966-.363.982-.4.946-.382.963-.408.931-.4.956-.434.911-.415.937-.434.9-.428.92-.454.882-.453.9-.467.869-.467.891-.253.406-.117.207-.117.217-.486.865-.506.83-.486.865-.525.82-.506.836-.538.8-.525.82-.57.775-.544.795-.583.774-.557.795-.577.758-.577.775-.6.739-.577.758h-.052v.026l-.032.026h-.045v.02l-.032.026-.117.035-.117.01-.6-.315-.544-.317-.545-.34-.505-.353-.506-.4-.473-.4-.473-.406-.428-.431-.434-.47-.4-.477-.395-.5-.356-.506-.37-.541-.311-.541-.317-.577-.272-.577-.032-.071-.091-.036-.091-.01h-.11l-.033-.278-.019-.253-.071-.47-.084-.214-.065-.191-.077-.188-.084-.162-.071-.11-.032-.107-.039-.127v-.126l-.83-.81-.771-.813-.778-.846-.739-.875-.707-.911-.68-.937-.648-.966-.616-.982-.065-.062-.078-.029-.11-.035h-.11l-.1-.38-.1-.35-.24-.649-.3-.612-.331-.551-.4-.525-.415-.457-.467-.425-.506-.369-.123-.081-.11-.029-.124-.026h-.11l-.272-.749-.3-.684-.337-.648-.331-.613-.389-.622-.395-.551-.461-.522-.446-.489-.111-.081-.091-.026-.11-.036h-.116l-.26-.749-.311-.677-.331-.649-.33-.622-.4-.613-.382-.551-.448-.532-.454-.5-.1-.081-.09-.036-.1-.026h-.13l-.3-.84-.318-.8-.35-.813-.363-.775-.045-.062-.078-.039-.11-.006h-.1v-2.959Z" transform="translate(118.341 187.786)" fill="#00537c" fill-rule="evenodd"/>
    <path id="Path_59" data-name="Path 59" d="M517.82,237.2l.661-.279.687-.288.655-.3.687-.289.629-.331.648-.318.635-.333.629-.315.6-.36.609-.344.577-.389.609-.36.136-.107.143-.1.266-.188.583-.4.558-.4.558-.4h-20.9l-.771.791.013.552.019.36.058.388.1.729.058.324.1.334.208.652h.11l.123.026.1.036.11.071.46.37.506.362.518.3.564.279.558.227.615.208.629.136.667.133.667.065.719.045.72-.019.778-.026.771-.1.83-.107.83-.162.875-.172v-.146l.013-.081.032-.052.052-.029Z" transform="translate(377.333 93.886)" fill="#00537c" fill-rule="evenodd"/>
    <path id="Path_60" data-name="Path 60" d="M516.011,248.281h-2.25v.214l-.019.038h-.019v.052l-1.174.308-1.108.36-1.069.4-1.011.454-1.011.476-.921.542-.9.567-.843.613-.816.649-.778.7L503.7,254l-.343.379-.674.794-.655.82-.583.875-.557.9-.506.963h8.764l.162-.4.124-.016.11-.039.1-.045.1-.042.467-.506.467-.505.434-.542.435-.532.123-.019.052-.016h.084l.136-.036.052-.01h.091l.415-.2.454-.172.427-.188.435-.172.415-.227.415-.2.395-.227.408-.224.564-.026.875-.11.875-.081.888-.081.862-.045.836-.052.843-.01,1.659.01,1.6.052.8.045.771.081,1.543.172.745.107.759.146.706.126.74.162,1.406.36.68.192.668.223.668.234.687.272.629.253.648.279.635.289.629.314.6.324.6.344.577.344.616.386h17.125l-1.458-1.034-.739-.489-.746-.451-.771-.477-.785-.45-.791-.441-.785-.408-.019-.143-.02-.081-.038-.081-.039-.029-.214-.126-.175-.124-.162-.145-.123-.143-.13-.191-.1-.188-.084-.207-.026-.217-.26-.036-.233-.081-5.309-2.479-5.348-2.425h-3.351l-.019-.146-.02-.072-.026-.062-.012-.009-1.245-.389-1.206-.3-1.205-.269-1.193-.188-1.186-.181-1.167-.091-1.16-.062H525.4l-1.16.036-1.122.091-1.115.143-1.121.2-1.1.244-1.083.3-1.063.353-1.062.4Z" transform="translate(345.572 177.413)" fill="#00537c" fill-rule="evenodd"/>
    <path id="Path_61" data-name="Path 61" d="M511.5,248.355h-8.764l-.323.632-.292.668-.285.658-.234.723-.253.684-.207.749-.208.739-.162.785-.181.765-.143.814-.149.8-.084.856-.11.859-.071.881-.058.885-.013.937h.1l.09.019.059.026.052.045.415,1.29.487,1.261.486,1.2.532,1.189h.11l.117.036.071.029.091.081.9,1.044.9,1.073.868,1.073.843,1.128.253.01.136.035.136.062,1.134.48,1.147.512,1.108.542,1.1.586h3.908v-.145l.02-.081.019-.052.045-.019.512-.224.24-.126.253-.11.227-.143.233-.126.2-.153.234-.146.181-.171.195-.163.363-.343.324-.385.071-.11.072-.1.162-.191v-.143l.039-.107.039-.11.052-.081.072-.152.11-.163.026-.09v-.036l.007-.019.039-.026.072-.162v-.091l.026-.017.026-.1.059-.191.026-.2.045-.191V267.6l.019-.217v-.461l.013-.016-.032-.272-.02-.046v-.224l-.026-.281-.026-.27-.15-.016-.1-.029-.117-.055-.065-.042-.952-.865-1.012-.83-1.03-.8-1.024-.749-1.083-.739-1.1-.7-1.135-.674-1.154-.632-.039-.279-.052-.253-.182-.687-.143-.684-.11-.719-.078-.749-.045-.8-.019-.81.019-.849.078-.871v-.02h.11v-.009h.11l.045-.036v-.019h.052l.4-1.2.435-1.157.434-1.125.486-1.056Z" transform="translate(343.215 187.786)" fill="#00537c" fill-rule="evenodd"/>
    <path id="Path_62" data-name="Path 62" d="M523.41,248.355H506.285l.992.677.952.739.94.785.94.84.862.865.843.937.395.47.4.5.4.506.409.542.019.243.039.11.053.126.732,1.287.726,1.335.713,1.335.713,1.361.668,1.351.668,1.4.648,1.406.648,1.442.6,1.416.6,1.468.577,1.478.558,1.507.544,1.494.538,1.543.506,1.549.505,1.578v.27l.032.282.129,2.155.091,2.181.052,2.152.039,2.181-.039,2.145-.038,1.083-.026,1.093-.117,2.155-.052,1.073-.072,1.089H523.2l-.019.035-.091.516-.058.243-.045.253-.078.217-.072.243-.071.224-.072.217-.11.188-.084.207-.078.074-.045.1-.1.191-.116.162-.065.081-.052.088-.253.317v3.335h-.143l-.071.019-.058.017-.007.026-.084.369h18.2l.363-.953.376-.931.719-1.9.324-.982.343-.957.344-.982.343-.966.032-.557.091-1.549.084-1.5.045-1.507.032-1.478V287.9l-.012-1.417-.039-1.422-.039-1.391-.1-1.413-.117-1.361-.123-1.361-.149-1.326-.162-1.326-.195-1.29-.22-1.28-.234-1.245-.143-.016-.09-.019-.072-.036-.019-.01-.363-1-.35-.966-.37-.966-.389-.927-.8-1.857-.434-.9-.428-.865-.453-.885-.454-.856-.492-.856-.48-.82-1.031-1.634-.538-.794-.525-.755-1.134-1.533-.583-.749-.59-.713-1.225-1.407-.649-.674-.642-.649-.674-.668-.668-.632-.707-.632-.68-.6-1.465-1.189-.739-.567-.74-.534Z" transform="translate(378.847 187.786)" fill="#00537c" fill-rule="evenodd"/>
    <path id="Path_63" data-name="Path 63" d="M473.645,224.953l-.071-.062-.032-.071-.026-.117v-.11l-1.16-.684-.6-.324-.583-.3-.616-.314-.609-.292-1.225-.548-.648-.288-.642-.253-1.31-.5-1.341-.461-1.342-.424-.142-.046-.13-.016-.253-.019-1.14.531-.564.253-.551.253-.149.029-.129.036H460.3l-.058.009-.129.016-.13.36-.123.353-.156.334-.175.315-.208.279-.22.272-.253.233h-.032l-.013.02-.032.035-.064.062-.13.126-.078.046-.032.1-.032.107v.143l.538,1.679.506,1.685.052.253.032.289L462,229.571l2.418,1.656,2.392,1.669,2.385,1.711,2.36,1.7,2.334,1.767,2.32,1.766,2.308,1.8h16.95l-1.672-1.552-1.678-1.514-1.712-1.523-1.691-1.468-.079-.084-.032-.078-.026-.11v-.107l-.532-.055-.454-.071-.422-.146-.2-.081-.156-.081-.11-.081-.11-.026-.129-.026h-.117l-.687-.814-.363-.379-.363-.35-.4-.36-.383-.333-.408-.334-.4-.3-.441-.314-.427-.289-.46-.282-.441-.252-.492-.279-.473-.234-1-.425-.136-.045-.13-.016-.253-.02-.615-.668-.629-.612-.648-.613-.668-.587-.694-.587-.713-.558-.719-.541-.759-.506Z" transform="translate(109.065 28.665)" fill="#00537c" fill-rule="evenodd"/>
    <path id="Path_64" data-name="Path 64" d="M553.363,242.041l-.175-.142-.168-.12-.194-.088-.195-.065-.22-.081-.214-.035-.252-.026h-.811l-.687-.966-.687-.9-.746-.875-.745-.84-.8-.8-.836-.775-.448-.379-.428-.353-.888-.684-.09-.071-.1-.036-.123-.029h-.13v-3.9l.072-.145.071-.127.156-.25.142-.291.163-.27.129-.3.123-.279.046-.162.058-.146.13-.279.032-.178.052-.162.091-.308.078-.35.039-.182.046-.152.012-.191.039-.172.058-.351.012-.191.033-.169.065-.362.032-.558.22-.065.1-.045.1-.036.194-.088.189-.11.064-.081.084-.062.13-.162.136-.172.129-.191.013-.061.078-.036.24-.019.279-.8H528.938l-.9,1.514-.9,1.513-.272.029-.2.088-.194.081-.189.091-.1.035-.1.046-.188.081-.227.045-.214.065-.13.016-.11.036-.22.038h-.143l-.123.027h-.143l-.129.009H523.9l-.3-.036-.156-.009h-.143l-.311-.029-.318-.036-.019-.143v-.145l-.272-.046-.234-.026-.46-.081-.22-.081-.188-.065-.37-.133-.331-.217-.266-.207-.24-.263-.1-.143-.084-.126-.285-.026-.24-.065-1.737-.532-1.737-.47-1.744-.441-1.744-.4H471.3l-.343.046-.312.081-.265.107-.2.172-.208.172-.142.243-.11.233-.058.308h-2.8v.107h-.026v.117l-.026.036-.032.055-1.186.4-1.141.444-1.121.46-1.1.5-1.069.505-1.031.558-1.024.551-.972.613-.966.623-.927.651-.9.664-.875.7-.862.713-.81.758-.8.785-.745.8-.273.029-.207.107-.182.081-.1.036h-.045v.019l-.026.026-.208.062-.11.039-.1.045-.227.036-.136.016-.1.026-.253.01-.26.036h-.013v.11l-.033.107-.052.11-.045.088-.629.57-.6.613-.59.622-.538.648-.545.648-.486.693-.492.7-.441.729-.441.719-.409.768-.4.755-.35.813-.35.8-.3.84-.3.84-.246.881-.279.875-.214.9-.207.92-.162.947-.156.947-.123.982-.117.992L440.438,255l-.078,1.027-.039,1.053-.013,1.057.039,1.118.026,1.083.064,1.144.084,1.134.117,1.19h.207l.046.019.052.026.265,1.073.318,1.067.317,1.027.363,1.037.37.972.4.972.408.956.441.957.447.9.473.9.473.865.519.859.525.82.551.821.577.79.6.778h18.9l-.57-.172-.571-.162-.026-.272-.084-.234-.518-.839-.525-.775-.57-.749-.583-.709-.649-.7-.648-.652-.7-.622-.707-.583-.039-.282-.052-.259-.8-2.12-.811-2.1-.817-2.09-.842-2.065v-5.607h.11v-.019h.1l.046-.026.045-.036.59-1.452.629-1.407.687-1.361.726-1.306.745-1.3.785-1.255.842-1.2.869-1.154.9-1.147.953-1.089.473-.541.505-.506,1.024-.992,1.063-.963,1.1-.921.545-.46.6-.425,1.18-.836.13-.019.058-.019h.078l.052-.027.064-.016.124-.039,1.439-.71,1.471-.677,1.5-.668,1.537-.623,1.536-.613,1.588-.567,1.608-.551,1.659-.5.551-.039,1.711-.269,1.724-.2,1.711-.181,1.73-.143,1.711-.11,1.711-.071,1.712-.055,1.717-.017,1.692.017,1.711.055,1.705.071,1.711.126,1.672.146,1.712.188,1.691.208,1.711.272v.107l.013.091.013.052.039.029.784.143.8.191.759.188.758.227.719.214.719.253.675.272.687.295.628.292.635.331.6.334.6.379.577.36.551.415.531.406.532.453-.039.548-.2,3.083-.129,3.1-.065,1.543-.026,1.549-.019,3.076.019,3.056.026,1.513.065,1.543.143,3.037.091,1.513.136,1.533h.1l.084.019.045.016.032.029.091.6.129.6.123.57.162.583.143.551.175.558.356,1.073.4,1,.46.966.487.911.252.441.279.451v2.794h.124l.1.019.078.036.052.055.694,1.5.745,1.507h22.318l-.46-.613-.427-.606-.421-.639-.4-.622-.408-.668-.382-.649-.707-1.351-.674-1.416-.623-1.462-.589-1.523-.266-.765-.24-.775-.486-1.634-.227-.84-.188-.82-.208-.866-.168-.865-.3-1.747-.266-1.841-.208-1.867-.181-1.909-.052-.982-.033-.985v-.568l2,1.021.972.531,1,.568.96.567.985.623.966.613.979.668.953.648.966.693,1.893,1.443.933.723.953.784,1.867,1.6.9.8.914.839.9.855.921.891.882.875.907.937.888.93.9.982.875.966.875,1.008,1.744,2.084,1.7,2.136,1.712,2.226h16.179l-1.977-2.515-1.977-2.47-2.01-2.453-2.042-2.389-2.081-2.388-2.107-2.327-2.139-2.324-2.159-2.262-2.2-2.256-2.237-2.2-2.255-2.2L563,250.724l-2.327-2.139-2.36-2.071-2.385-2.074-2.418-2.01-.078-.081-.039-.081-.026-.11v-.117Z" transform="translate(6.893 46.943)" fill="#00537c" fill-rule="evenodd"/>
    <path id="Path_65" data-name="Path 65" d="M470.546,230.923l-.745.3-.7.353-.681.36-.629.4-.648.4-.6.441-.584.461-.544.486-.058.016-.045.029-.1.055-.129.026-.123.02-.221.5-.156.505-.084.243-.052.253-.045.506h22.1l-.667-.677-.7-.649-.745-.623-.376-.3-.376-.269-.823-.551-.855-.5-.454-.253-.447-.217-.92-.431-.065-.045-.026-.081-.019-.091v-.107l-1.044-.181-1.056-.127-1.089-.117-1.1-.055-1.128-.061-1.161-.036-1.173-.019-1.18.035Z" transform="translate(142.72 89.314)" fill="#00537c" fill-rule="evenodd"/>
    <path id="Path_66" data-name="Path 66" d="M478.407,223.372h-16.95l2.308,1.838,2.288,1.876,2.269,1.883,2.236,1.928,2.217,1.929,2.2,1.977,2.165,1.99,2.165,2.048,2.126,2.019,2.1,2.081,2.068,2.084,2.074,2.116,2.029,2.12,2.009,2.165,1.99,2.188,1.977,2.226.045.055.1.046.1.026.149.019-.026.344v.36l.013.314.045.3.046.262.1.279.091.234.143.217.1.207.032.127.013.143.635.606.629.629.609.651.6.674.571.687.551.709.538.723.525.765.046.045.078.045.091.029.149.017.143.522.175.541.169.506.214.522.188.48.22.486.46.921.072.224.039.262.493.334.214.172.24.208.4.431.188.217.195.253.136.243.156.263.291.557.11.278.1.318.1.324.11.341.052.253.012.288.214.029.207.081.188.082.195.126.143.126.143.153.123.181.11.214.032.035.078.046.078.019.149.01,2.146,4.245h13.152l-.35-.506-.37-.476-.376-.451-.4-.434-.078-.082-.091-.026-.117-.035h-.123L518.9,272.88l-1.167-1.847-1.154-1.822-1.193-1.837-1.179-1.8-2.424-3.552-2.477-3.526-2.534-3.472-1.3-1.721-1.3-1.694-2.638-3.335-1.361-1.675-1.342-1.65-2.755-3.247-1.407-1.6-1.406-1.585-1.445-1.578-1.42-1.549-1.465-1.568-1.465-1.533-2.969-3.03-1.517-1.5-1.5-1.468-1.536-1.468-1.537-1.442Z" transform="translate(126.121 46.943)" fill="#00537c" fill-rule="evenodd"/>
    <path id="Path_67" data-name="Path 67" d="M445.561,225.121l-.584.035h41.091l-2.294-.5-1.155-.217-1.134-.191-2.307-.36-1.154-.162-1.141-.126-2.34-.253-1.173-.1-1.154-.064-2.341-.108-2.34-.026h-2.372l-2.373.052-1.205.055-1.193.081-2.366.2-1.213.117-1.205.146-2.412.3-1.205.172-1.212.217-2.418.46h-2.8v.263Z" transform="translate(33.215 45.159)" fill="#00537c" fill-rule="evenodd"/>
    <path id="Path_68" data-name="Path 68" d="M455.152,238.511v.12l.013.107.032.081.065.045,1.88.891,1.867.93,1.834.947,1.822.982,1.79.982,1.77,1.027,1.737,1.047,1.73,1.083,1.685,1.079,1.685,1.119,1.64,1.147,1.647,1.16,1.594,1.183,1.582,1.215,1.568,1.235,1.549,1.264H497.4l-1.329-1.173-1.341-1.134L493.37,252.7,492,251.591l-1.394-1.1L489.2,249.42l-1.42-1.063-1.426-1.027-1.472-1.047-1.465-1.011-1.491-1-1.5-.966-1.542-.963-1.53-.93-1.549-.937-1.569-.885-1.595-.9-1.614-.875-1.627-.875-1.633-.826-1.659-.84-1.679-.794-1.685-.795-1.7-.755-1.737-.775-1.744-.733-1.757-.719-1.77-.7-1.8-.694-1.8-.658-1.821-.668-1.834-.623h-.02v.107h-.012v.117l-.039.065-.038.045-.363.172-.318.224-.3.233-.266.273-.266.269-.22.317-.207.315-.169.37-.169.36-.124.4-.1.4-.071.467-.078.453-.032.487-.013.505.032.557v.127l.026.126.032.117.065.107.492.713.518.729.525.7.57.733.253.016.124.02.143.045,1.128.486,1.141.542.265.016.285.046,1.309.181,1.375.136,1.413.088.726.036.759.045Z" transform="translate(27.533 69.43)" fill="#00537c" fill-rule="evenodd"/>
    <path id="Path_69" data-name="Path 69" d="M475.891,231.7H453.573l.9,1.757.959,1.74,1,1.695,1.031,1.685,1.063,1.63,1.089,1.6,1.121,1.569.571.775.6.775,1.193,1.472.59.729.635.739,1.25,1.423,1.31,1.406.648.668.68.684,1.38,1.326,1.407,1.28,1.439,1.264h.11l.13.035.111.026.13.081.155.081.188.082.188.064.226.081.454.081.253.01.285.026v.117l.038.11.026.078.078.084.966.8,1.024.81,1.063.778,1.095.739,1.089.674,1.154.687,1.167.648,1.219.613v.117l.013.091.039.081.065.045.188.091.168.136.162.126.15.168.1.162.091.2.084.214.058.237.253.016.273.072,4.635,1.6,4.615,1.63,4.609,1.659,4.589,1.73.558.02,4.783.395,4.765.406,4.732.415,4.7.441h.11l.1.009.065.036.052.065.331.648.363.632.4.587.422.567.467.522.492.5.518.451.577.45v.11l.039.117.033.107.078.107.933,1.164.9,1.183.843,1.16.188.281.091.143.11.162.415.6.746,1.18.706,1.164.662,1.173.149.288.156.3.317.6h15.739l-.408-.759-.382-.775-.065-.126-.026-.117-.019-.253-.24-.062-.2-.084-.208-.088-.162-.11-.175-.142-.123-.163-.13-.171-.09-.191-.046-.062-.078-.026-.1-.029h-.11l-1.154-1.857-1.128-1.883-1.089-1.919-1.03-1.948-1.024-1.974-.979-2-.966-2.045-.9-2.039-.072-.126-.026-.107-.012-.272.531-.35.558-.353.253-.178.129-.1.136-.081.538-.35.506-.389.505-.38.117-.116.124-.1.253-.181.5-.389.22-.214.11-.12.13-.088.473-.425.453-.45.48-.425.091-.126.116-.108.22-.217.441-.47.428-.467.091-.126.117-.117.221-.217.382-.516.181-.252.1-.117.116-.117.376-.522.4-.506.35-.541.363-.532.344-.551.35-.542.317-.583.331-.571.065-.162.078-.133.162-.289.318-.587.279-.622.291-.613.266-.632.285-.613.013-.055.071-.026.078-.019h.136l.1-.856.1-.82.084-.82.072-.794.1-1.569.013-.755.013-.733-.064-1.468-.046-.713-.045-.677-.162-1.352-.214-1.27-.156-.648-.149-.623-.344-1.183-.208-.583-.2-.561-.24-.548-.24-.525-.279-.541-.266-.5-.292-.506-.3-.479-.661-.927-.369-.451-.357-.405h-22.1l-.033.629.078.642.052.289.1.324.253.632.071.234.039.272.551.538.589.532.583.506.616.515.078.046.1.045.136.036.143.009h.609l.227.017h.836l.811-.026.791-.046.175-.035.188-.02.376-.026.745-.1.719-.127.687-.142.24-.046h.285l.22.153.253.181.253.136.285.162.59.234.311.1.35.091.252.036.273.019.279.4.317.4.318.37.35.37.065.045.09.052.11.029.143.017.331,1.183.344,1.235.7,2.551h.02l.064.036h.079l.142.009v5.582l-.162.369-.143.376-.155.369-.143.373-.175.35-.175.35-.182.334-.181.344-.22.308-.208.314-.22.3-.207.314-.253.272-.233.279-.253.27-.24.288-.279.237-.278.25-.292.226-.285.234-.324.207-.291.227-.318.2-.3.224-.35.172-.324.191-.37.162-.35.172-.383.143-.363.152-.376.146-.188.071-.1.029-.078.046h-.077l-.065.016-.123.026-.253.029-.59-.425-.518-.441-.253-.253-.227-.252-.421-.522-.4-.6-.33-.622-.3-.674-.227-.7-.052-.143-.013-.136-.02-.253-.375-.2-.35-.226-.331-.234-.3-.243-.3-.279-.265-.289-.272-.3-.22-.314-.072-.082-.071-.035-.11-.029h-.117l-.4-1.215-.467-1.154-.253-.571-.246-.538-.279-.535-.266-.5-.317-.532-.292-.489-.331-.5-.324-.451-.35-.477-.344-.441-.732-.839-.091-.065-.1-.036-.1-.026h-.13l-1.912-2.768-.985-1.377-.967-1.345-1.97-2.7L513.7,231.7H497.516l1.451,2.009.733,1.028.739,1.053.713,1.067.726,1.089.713,1.093.726,1.128.052.042.078.046.091.019.149.016v.252l.027.253.078.47.058.217.071.2.084.188.11.192.091.207.039.269.642.3.616.369.285.188.285.218.532.46.071.045.11.052.11.02.143.009.376,1.063.434,1.047.44,1.008.473,1.011.473.963.506.966.525.927.563.93.084.2.033.272.331.045.311.108.279.142.1.082.129.11.078.1.1.126.136.273.052.142.052.172.078.37.027.567.35.282.331.315.635.677.285.36.266.37.253.4.253.424.214.415.2.451.175.451.168.486.143.48.129.5.11.534.11.538h-.278l-.383.11-.363.091-.765.142-.408.046h-.11l-.1.009-.181.036-.415.019-.4.026-.447-.01-.22-.016h-.207l-.441-.055-.434-.029-.454-.062-.448-.062-.467-.1-.129-.026-.065-.01h-.045l-.22-.036-.285-.045-.266-.029-1.6-.791-1.562-.794-1.575-.81-1.523-.813-1.549-.83-1.523-.836-1.517-.859-1.491-.836-.123-.064-.116-.036-.266-.01-1.154-.872-1.108-.875-1.108-.9-1.057-.9-1.063-.95-1.024-.947-1.031-.982-.979-.982-1-1.018-.952-1.037-.947-1.057-.921-1.063-.914-1.089-.868-1.109-.869-1.138-.823-1.144-.065-.055-.078-.036-.11-.026h-.117l-.045-.4-.059-.36-.11-.344-.117-.269-.1-.146-.072-.107-.195-.2-.233-.181-.136-.081-.1-.046-.124-.061-.117-.029-.266-.017v-.723l-.026-.334-.039-.288-.064-.3-.078-.253-.1-.234-.1-.191-.078-.107-.032-.117-.039-.116v-.136l-.8-.931-.759-.963Z" transform="translate(81.675 93.886)" fill="#00537c" fill-rule="evenodd"/>
    <path id="Path_70" data-name="Path 70" d="M464.555,231.7H449.8l1.789,1.533,1.79,1.568,1.737,1.594.849.8.875.849,1.659,1.659,1.659,1.721.791.856.811.885,1.6,1.783,1.529,1.8,1.5,1.847,1.471,1.886,1.452,1.909,1.413,1.948,1.375,1.973,1.348,2.01.648,1.011.661,1.047.013.269.077.27.266.687.3.648.155.289.195.324.4.577.421.532.467.516.24.224.266.243.551.453.013.27.071.252.194.522.24.541.24.506.265.522.558.966.285.477.317.47.3.431.331.434.687.865.343.389.382.4.376.379.408.4.019.243.033.11.065.123.343.615.363.649.719,1.316.661,1.342.312.677.337.723.584,1.4.57,1.472.519,1.5.259.755.253.794h.11l.11.019.058.036.052.052.1.2.117.169.13.162.181.146.169.107.207.091.2.064.24.062v.126l.039.127.026.107.078.11.227.451h16.588l-.836-1.351-.843-1.31-.9-1.28-.9-1.251-.966-1.209-.979-1.19-1.024-1.154-1.031-1.093-.026-.288-.052-.253-.156-.36-.149-.344-.3-.639-.369-.622-.182-.3-.188-.269-.434-.56-.227-.26L497,273l-.253-.253-.252-.217-.525-.434-.033-.26-.058-.253-.162-.37-.143-.334-.3-.648-.37-.616-.181-.295-.194-.272-.428-.557-.24-.263-.22-.243-.253-.253-.246-.217-.525-.431-.032-.289-.052-.253-.156-.36-.142-.324-.3-.651-.363-.623-.194-.295-.188-.272-.448-.558-.226-.272-.227-.234-.253-.253-.253-.224-.518-.424-.019-.279-.052-.244-.078-.236-.09-.207-1.316-2.081-1.315-2.048-1.375-2.01-1.367-1.973-1.446-1.948-1.439-1.909-1.491-1.886-1.5-1.857-1.568-1.828-1.562-1.786L473.034,240l-1.634-1.721-1.678-1.7-1.686-1.656-1.724-1.633-1.757-1.594Z" transform="translate(60.38 93.886)" fill="#00537c" fill-rule="evenodd"/>
    <path id="Path_71" data-name="Path 71" d="M466.026,234.574l-.635-.451-.641-.434-.681-.415-.68-.36-.726-.36-.745-.308-.778-.295-.771-.253h-18.9l.506.623.544.622,1.083,1.205h.13l.123.029.11.036.117.081.726.487.771.476.81.444.836.422.843.379.9.363.934.331.959.308v.107l.019.117.026.065.065.045.188.091.181.126.156.127.143.178.11.172.1.208.065.207.058.234.272.019.123.01.143.052,1.154.415,1.205.389,1.219.369,1.264.344,1.265.314,1.3.315,1.309.289,1.361.272v-.019h.11l.129-.036.1-.046.045-.026.058-.019.544-.422.538-.434.506-.46.253-.234.266-.227.24-.25.253-.236.24-.253.253-.243.461-.506.473-.5-.02-.288-.013-.029V237.5l-.084-.775-.091-.713-.162-.678-.181-.619-.143-.019-.13-.036-.11-.036-.084-.055Z" transform="translate(13.411 93.886)" fill="#00537c" fill-rule="evenodd"/>
    <path id="Path_72" data-name="Path 72" d="M443.5,257.055l-.149.061-.078.026-.064.045-.156.055-.162.062H464.44l1.841-.953.558-.029,1.206-.162,1.219-.091,1.231-.061,1.264-.02,1.251.02,1.277.081,1.283.107,1.316.155v.117l.019.091.013.042.045.055.811.3.389.162.395.188h14.728l-.376-.785-.4-.739-.143-.017-.11-.009-.091-.055-.052-.046-2.074-2.45-2.009-2.434-.266-.029-.214-.078-.59-.353-.59-.315-1.2-.587-.642-.279-.622-.253-1.284-.47-.68-.217-.667-.188-.68-.188-.681-.165-1.406-.3-.726-.126-.713-.091-.758-.116-.746-.082-1.517-.11-.791-.045-.791-.016-1.6.016-.836.01-.824.055-.836.045-.836.081-.875.081-.869.107-.888.11-.863.143h-.012v.11h-.026v.117l-.033.045h-.013v.046l-1.309.35-1.284.379-2.5.811-2.476.83-1.2.441-1.173.48-1.18.46-1.154.5L449.427,253l-1.122.532-1.1.542-2.126,1.164h-.019v.107h-.013v.107l-.052.064-.026.055-.227.088-.169.127-.162.126-.13.182-.123.171-.09.208-.084.2-.033.243h-.136l-.117.026-.2.12Z" transform="translate(21.428 178.836)" fill="#00537c" fill-rule="evenodd"/>
    <path id="Path_73" data-name="Path 73" d="M485.868,248.355H464.237l-.058.009-.13.036-.285.045-.3.029-.318.036h-.012v.107h-.02v.107l-.032.039h-.013v.042l-.045.065-1.3.875-1.258.921-1.212.927-1.186,1-1.154,1-1.128,1.057-1.089,1.073-1.043,1.128-1.031,1.115-.992,1.193-.966,1.215-.9,1.255-.907,1.27-.836,1.306-.836,1.345-.777,1.377-.234.01-.078.036-.02.064-.129.188-.123.182-.143.152-.072.062-.071.074-.181.117-.2.1-.111.029-.091.045-.22.071-.013.117-.012.062v.084l-.039.052-.02.055-.026.136-.843,1.8-.791,1.847-.739,1.9-.7,1.948-.668,1.974-.609,2.029-.589,2.055-.279,1.037-.253,1.073v.557l-.058,2.2-.013,2.165.013,2.135.019,1.063.052,1.073.078,2.074.052,1.008.071,1.027.143,2.009.207,1.993h.11l.1.019.045.01.046.052.648,2.009H461.6l-.492-1.413-.422-1.406-.395-1.452-.337-1.478-.168-.765-.143-.759-.149-.784-.1-.759-.207-1.575-.1-.8-.052-.794-.142-1.659-.084-1.685-.046-1.721.02-1.721.039-1.8.032-.911.065-.9.143-1.857.083-.927.1-.92v-.02h.116V277.5h.1l.052-.026.045-.029.492-1.569.525-1.533.532-1.5.59-1.462.577-1.432.648-1.406.655-1.377.694-1.345V265.8h.11l.117-.029.026-.036v-.019h.045l.065-.042,1.154-1.562,1.206-1.539,1.219-1.507,1.284-1.452,1.277-1.442,1.348-1.387,1.341-1.38,1.407-1.306.129-.016.065-.02h.084l.039-.035.065-.01.123-.026,2.58-1.442,2.613-1.406,2.625-1.406,2.677-1.381Z" transform="translate(0 187.786)" fill="#00537c" fill-rule="evenodd"/>
    <path id="Path_74" data-name="Path 74" d="M466.495,248.355H451.767l.571.262.558.324.518.325.512.369.454.363.46.415.428.422.408.48v.107l.026.126.039.1.064.107.266.395.24.461.091.236.1.269.156.551.1.583.065.651v.674l-.032.749h-.143l-.11.035-.11.029-.084.081-1.057.82-1.044.836-2.1,1.653-1.076.8L450,261.4l-2.139,1.614-.02.136v.136l-.026.123-.012.065v.081l-.136.568-.032.288.019.3.078.568.072.288.1.3.253.541.155.269.208.282.46.538.253.272.3.288.253.01.13.026.136.072.266.071.279.1.279.081.317.072.3.055.33.055.675.107.719.01H454l.8-.046.875-.071v-.136l.013-.081.013-.062.052-.01.856-.308.869-.279,1.686-.6.181-.1.1-.045.11-.036.415-.153.823-.317.784-.334.8-.315v-.143l.026-.11.039-.1.077-.045.959-.859.953-.872.927-.875.927-.9-.039-.56-.012-.37.052-.3.078-.289.045-.126.078-.1.065-.107.091-.082.207-.145.234-.107.3-.046.013-.279.052-.272.11-.775.091-.749.078-.739.052-.713.013-.729v-.694l-.013-.7-.032-.658-.072-.677-.1-.648-.124-.648-.142-.642-.175-.623-.188-.612-.208-.593-.24-.57Z" transform="translate(48.218 187.786)" fill="#00537c" fill-rule="evenodd"/>
    <path id="Path_75" data-name="Path 75" d="M629.775,257.378v-.561l.143-.136H592.924l-.473,1.076-.493,1.07-.544,1.047-.279.522-.285.541-.635,1.012-.336.506-.311.522-.195.243-.168.253-.35.505-.726,1.008-.415.48-.1.107-.1.126-.194.253-.408.477-.408.486-.876.95-.9.953-.959.911-.979.92-1.05.885-.538.451-.265.214-.253.237-.291.016-.279.046-1.122.243-1.108.262h-.012v.117l-.033.107-.032.029h-.012v.055l-.052.062-.681.46-.629.487-.59.522-.551.577-.519.577-.492.652-.467.664-.4.714-.279.019-.253.081-.7.26-.648.308-.609.343-.577.4-.551.425-.506.467-.253.236-.22.269-.428.551-.279.017-.253.064-.687.2-.623.273-.583.314-.506.4-.473.424-.227.244-.188.262-.357.542-.291.622-.266.017-.24.09-1.076.558-1.057.57-2.171,1.1-1.1.532-1.089.531-1.109.525-1.095.538-2.262,1.011-.156.046-.143.061-.285.127-.571.262-1.14.506-1.167.477-.156.036-.142.071-.285.12-.57.253-1.174.457-1.154.48-.558.045-.661.081-.668.1-.687.081-.356.029h-.136l-.039.016-.155.036h-.331l-.032.009-.344.029h-.337l-.033.016-.343.035-.733.027-.725.055v.278l-.363-.016-.318.016-.285.055-.124.026-.1.064-.188.107-.143.172-.11.172-.045.243-.558.019-2.042.169-2.022.182-2,.117-2,.116-1.99.046-1.971.045-1.983.019-1.945-.019-1.964-.062-1.932-.081-1.925-.11-1.919-.143-1.912-.171-1.892-.208-1.886-.234L505.9,294.2v-.273l-.369-.016-.175-.01h-.136l-.162-.035-.13-.02-.123-.045-.1-.036-.11-.071-.078-.072-.143-.136-.11-.188-.052-.207h-2.787l-.013-.146-.013-.091-.046-.081-.032-.016-1.063-.47-1.057-.431-1.076-.408-1.076-.386-1.128-.37-1.122-.343-1.14-.334-1.155-.279-.026-.263-.078-.214-.492-.768-.518-.749-.557-.709-.551-.652V286.1l.045-.26.188-1.147.227-1.1.214-1.1.279-1.057.246-1.063.3-1.028.3-1.008.343-.985.331-1,.382-.94.383-.953.415-.9.408-.917.441-.865.46-.866.492-.83.473-.84.525-.81.519-.8.564-.755.558-.759.6-.729.609-.733.629-.674.635-.7.661-.652.687-.648.706-.613.714-.622.739-.578.746-.577.8-.532.117-.019.065-.016h.084l.129-.029.058-.017h.078l.032-.035.045-.01.1-.026.195-.074.376-.124.759-.253.746-.282.026-.035.052-.017.1-.029.182-.061.382-.127.35-.152.032-.036.045-.019.091-.026.194-.065.733-.3.706-.318.35-.162.033-.026.039-.02.1-.036.188-.055H490.909l-1.8,1.38-1.756,1.407-1.725,1.433-1.692,1.471-1.692,1.485-1.627,1.533-1.62,1.553-1.562,1.6h-.013v.107l-.032.127-.039.045-.013.065-.046.133-.175.344-.078.188-.046.227-.078.45-.032.263v.279l-.24.016-.084.039-.013.052-.181.317-.195.325-.059.061-.038.029-.02.052-.09.155-.188.295-.13.127-.065.074-.032.026-.013.045-.22.27-.24.253-.24.252-.279.224-.265.227-.292.2-.279.207-.318.172-.317.182-.331.152-.331.162-.142-.016-.11-.039-.1-.045-.045-.045-.986-1.3-.966-1.26-.992-1.274-.978-1.235-2.029-2.45-2.042-2.388-.026-.263-.1-.207-.558-.891-.5-.875-.5-.931-.467-.911-.461-.953-.408-.957-.4-.982-.363-.986H439.324l.461,1.391.479,1.371.992,2.729,1.031,2.651.538,1.3.57,1.3h.1l.117.02.065.036.045.055.091.2.129.172.124.162.175.133.182.12.2.088.208.081.234.064v.107l.032.127.033.11.077.133.8,1.163.843,1.19,1.692,2.343,1.724,2.291,1.79,2.282.888,1.1.913,1.108.914,1.093.96,1.108.927,1.063.966,1.073,1.945,2.12h.124l.129.035.11.036.117.055.155.081.188.081.428.143.46.071.518.055v.127l.026.107.039.081.078.074.869.71.855.749.836.768.836.785.81.791.811.823.778.82.771.856.013.567.33,2.291.175,1.125.208,1.137.427,2.2.493,2.191.233,1.057.272,1.063.265,1.038.3,1.043.622,2.029.674,2h23.542l-2.346-5.519-.064-.124-.026-.11-.02-.269.208-.272.22-.234.227-.207.233-.172.24-.172.252-.117.253-.107.279-.055.272-.036.285-.019.291.019.292.036.3.055.317.107.331.117.344.172.032.019.052.072.013.1.012.143,3.423.279,3.416.236,3.377.2,1.685.081.836.026.855.055.817.01.843.026,1.672.055h1.238l.428.016,1.672.029h3.306l1.653-.019.823-.01h.836l3.26-.107,3.248-.146,3.235-.188.791-.064.389-.036.421-.017,1.608-.11,1.588-.142.784-.082.81-.064,1.575-.169,1.6-.165,1.562-.188,1.589-.182,3.131-.415.551-.035,5.86-2.48,5.879-2.424.253-.091.285-.016,1.73-.541,1.7-.551.408-.152.214-.081.221-.062.849-.289,1.685-.606,1.634-.632,1.6-.648.791-.35.194-.091.208-.081.415-.152,1.575-.7,1.536-.729.759-.379.382-.188.188-.1.208-.072.175-.117.188-.1.376-.179.759-.388,1.491-.794,1.452-.82.35-.214.168-.12.2-.088.726-.415,1.406-.849,1.387-.875.045-.061v-.046h.02l.032-.035v-.11h.013v-.108h.013l.545-.162.123-.045.143-.026.286-.074.538-.169.538-.156.506-.188.253-.1.129-.046.136-.035.506-.189.259-.09.123-.055.149-.026.473-.224.1-.065.129-.045.253-.091.46-.224.473-.227.447-.253.214-.126.117-.062.123-.045.441-.253.448-.243.2-.107.272-.029.033-.234.078-.217.084-.2.124-.162.129-.172.155-.126.169-.127.227-.1.026-.045v-.046h.013l.039-.036v-.11h.02v-.107h.012l1.2-.684,1.238-.651,1.231-.649,1.271-.613,2.547-1.2,1.3-.568,1.323-.541.227-.1.266-.009.35.181.344.227.318.224.318.253.279.253.292.278.506.623.448.648.181.344.188.389.318.764.143.415.148.441.046.263.032.279.214.029.207.081.194.081.188.126.142.124.143.155.124.178.129.217.026.036.084.045.078.019.143.017-.026.363v.34l.013.325.064.317.046.26.09.253.1.243.143.227.09.207.039.263,1.458,1.594,1.446,1.63,1.432,1.643,1.42,1.685.045.045.1.043.1.029.149.026.343,1.011.4.992.421.963.461.94.479.9.519.882.557.849.578.83.058.081.039.107.013.107.026.146.078.425.058.467.039.489.013.557-.013.263v.3l-.039.612-.046.652-.064.694-.026.269v.289l-2.93,2.706-2.866,2.758h45.952l-.11-.152-.1-.172-.045-.065-.058-.036-.117-.009h-.11l-1.27-2.243-1.231-2.236-1.206-2.262-1.193-2.246-.064-.127-.032-.116-.013-.263.162-.253.072-.133.1-.11.059-.143.084-.117.156-.281.052-.153.058-.133.129-.292.091-.324.1-.288.026-.289.013-.269.571-.486.265-.253.292-.243.531-.515.538-.532.24-.279.253-.272.492-.577.48-.577.447-.6.039-.062.078-.029.1-.036h.143l.168-.82.24-.729.266-.694.336-.6.027-.136.019-.062.033-.045v-.082l.012-.064.013-.127.253-.269.278-.253.532-.505.525-.542.253-.26.266-.252.24-.289.253-.272.5-.558.493-.567.486-.568.052-.055.091-.036.1-.035h.143v-.289l.033-.253.077-.451.046-.226.084-.189.078-.191.11-.162.052-.117.012-.071.026-.036.033-.136v-.107h.02l.2-.065.1-.055.1-.026.188-.09.2-.117.052-.081.078-.055.149-.162.13-.179.123-.191.026-.062.078-.029.084-.016h.143v-.289l.039-.253.072-.45.045-.227.078-.188.084-.188.1-.163.026-.055.026-.055.013-.061.039-.046.032-.126.013-.127,1-1.082.518-.532.253-.269.265-.253,1-1.093,1.018-1.073.985-1.128.972-1.109.979-1.134.973-1.128.045-.081.1-.026.11-.035h.142l1.3,1.154,1.3,1.189,1.283,1.179,1.277,1.229,1.232,1.215,1.245,1.245,1.205,1.251,1.225,1.28,1.173,1.28,1.174,1.319,1.154,1.316,1.154,1.341,1.115,1.342,1.128,1.381,1.089,1.38,1.083,1.413.052.055.091.045.11.036.142.01.02.5.084.479.045.2.084.217.078.172.1.188.091.208.039.116.013.146.415.253.415.289.4.295.4.334.344.343.344.36.331.363.317.406.052.052.091.045.091.036.143.01.343,1.183.4,1.154.382,1.1.447,1.1.084.226.026.279-.454.785-.4.84-.4.836-.337.9-.078.25-.019.281-.234.036-.207.081-.208.081-.155.127-.169.126-.13.162-.123.172-.11.224-.032.029h-.059v.007l-.026.035-.1.02h-.11v.019l-.033.25-.013.253-.032.11-.013.126-.032.234-.059.1-.013.117-.078.2-.026.026h-.006v.055l-.039.091-.091.2-.1.2-.039.272-1.315,1.559h48.318l-.675-.515-.648-.532-.648-.558-.6-.57-.6-.6-.578-.6-.557-.632-.519-.632-.531-.684-.487-.694-.467-.713-.454-.714-.427-.755-.415-.759-.4-.794-.356-.794-.064-.123-.032-.11-.013-.253.156-.162.032-.045.045-.026.091-.065.336-.286.311-.317.324-.315.292-.353.285-.341.272-.389.129-.188.071-.091.013-.055.058-.026.045-.081.078-.029.091-.035h.143l.577-1.245.616-1.189.648-1.154.707-1.109.739-1.089.771-1.038.811-1.011.869-.937.052-.081.1-.027.117-.038h.136V288.9l.033-.25.084-.46.032-.227.091-.181.162-.35.052-.126.02-.062.026-.045.038-.136v-.107h.007l.357-.208.35-.217.149-.126.084-.065.1-.043.317-.252.292-.289.266-.282.136-.162.065-.081.077-.062.253-.317.045-.062.072-.036.1-.026h.143l.006-.541.091-.461.129-.424.072-.189.11-.162.013-.064.039-.046.019-.061.026-.046.033-.126.013-.127.486-.431.467-.425.22-.236.234-.224.233-.234.234-.226.2-.253.22-.244.207-.252.22-.234.415-.506.415-.505.046-.062.078-.029.091-.036h.142l.344-.036h.35l.687.02.623.052.616.11.531.143.253.074.253.107.22.1.24.126.427.269.2.091.123.036.149.019.33.476.363.47.382.441.408.46.4.431.428.424.9.8.052.052.039.091.032.107.019.146,1.315.477,1.277.525,1.245.541,1.244.583.234.074.272.036.039.214.072.208.078.191.117.188.136.146.155.133.182.136.214.127.039.019.032.081.026.087.013.146,2.087,1.235,2.133,1.219,2.146,1.18,2.2,1.174,2.2,1.124,2.25,1.108,2.262,1.092,2.288,1.053,2.288,1.037,2.366.992,2.359.966,2.418.963,2.411.9,2.457.9,2.482.866,2.509.836.252.055.292.026,2.735.541,2.761.48,1.354.2,1.394.188,2.787.353,1.348.126,1.394.117,2.794.179,1.387.074,1.386.036,2.814.071,1.387-.016,1.386-.039,2.794-.088,2.807-.191,1.394-.107,1.419-.136,1.394-.153,1.426-.171,1.387-.189,1.427-.207,2.813-.48,1.426-.253,1.42-.269.272-.045.292-.019.609-.36.324-.172.343-.143.714-.272.363-.127.4-.1.765-.182.849-.142.862-.11.453-.052.467-.019h.558l.83-.486.9-.425.9-.431.979-.38.953-.379,1.037-.334,1.056-.334,1.1-.259v-.055h.013l.032-.055v-.2h.013l.739-.146.324-.062.344-.026.635-.081.609-.019.253-.01.259.01.493.045.447.081.4.117.253.065.26.026.246.558.207.577.188.586.169.622.13.613.1.632.091.648.058.667.013.668v.674l-.033.7-.039.719-.1.7-.117.739-.143.748-.162.775-.039.253-.02.272-.285.775-.272.785h20.788l.486-1.326.11-.344.136-.333.253-.668.007-.289.052-.279.292-1.407.285-1.423.253-1.462.039-.369.071-.37.123-.729.091-.758.045-.379.065-.36.2-1.5.143-1.533.162-1.552.117-1.576.007-.415.038-.4.065-.791.026-.823.019-.415.032-.4.065-1.64.026-1.679v-1.277l.019-.415v-1.705l-.019-.45v-1.29h.117v-.026h.11l.065-.036.045-.038v-.043l.007-.035.032-.065.078-.126.123-.253.091-.269.11-.252.175-.542.175-.532v-.019h.11l.117-.026.091-.055.084-.045.635-.659.622-.648.6-.668.143-.172.156-.162.317-.314.285-.354.143-.169.156-.162.6-.677.59-.694.6-.687.551-.729.564-.7.544-.729.123-.2.142-.172.279-.343.253-.389.136-.179.143-.181.525-.74.532-.755.531-.742.486-.791.506-.785.486-.784.486-.794.46-.82.473-.813.46-.82.22-.415.11-.2.136-.2.415-.846.448-.84.409-.856.434-.849.389-.892.415-.875.4-.881.195-.444.091-.224.11-.2h-18.2l-.162.535-.045.133-.026.136-.072.289-.3,1.073-.181.506-.162.522-.344,1.028-.208.479-.188.487-.415.963-.214.444-.11.224-.091.236-.246.441-.22.461h-.136l-.1.035-.091.036-.058.062-.071.055-.072.081-.123.162-.163.127-.077.055-.052.081-.11.055-.071.061-.162.127-.091.045-.091.062-.143.11-.117.036-.1.045-.181.1-.415.146-.124.01-.11.036-.227.061-.24.036-.22.039-.143-.01-.11-.019-.11-.046-.071-.045-2.573-2.424-2.619-2.37-2.651-2.372-2.632-2.327H859.487l.9.444.881.486.856.505.836.542.816.532.791.593.759.6.759.648.7.642.707.674.68.677.661.73.609.729.609.769.583.794.57.836.519.82.505.866.487.865.48.921.421.921.435.963.4.966.382,1.012.337,1.008.337,1.047.3,1.063.285,1.109.253,1.1.246,1.157.207,1.154.182,1.206h-.136l-.084.009-.058.02-.013.052-.162.434-.143.451-.181.415-.156.422-.188.4-.09.188-.052.091-.026.117-.389.739-.26.02-.246.09-2.107.872-2.133.875-2.145.84-2.159.83-2.178.81-1.108.4-1.089.415-2.21.765-2.217.795h-.558l-.94.045-.863.1-.83.136-.784.2-.4.091-.363.127-.369.126-.324.162-.35.143-.318.172-.324.172-.272.207-.558.019-1.264.081-.629.026-.324.019-.3.036-2.489.116-1.271.036-.622.019-.629.026-2.489.026-2.534-.026-2.5-.081-2.548-.116-2.482-.182-.149-.016-.124-.029-.11-.052-.091-.039-.343-.279-.351-.233-.369-.218-.4-.171-.434-.2-.447-.136-.454-.134-.467-.09-.525-.091-.518-.071-.564-.046-.544-.019-.61-.01-.59.029-.641.046-.648.081-.013-.146-.013-.081-.039-.072-.038-.019-1.919-.593-1.886-.613-1.874-.613-1.854-.632-1.861-.668L810.424,289l-1.8-.678-1.763-.7-1.77-.729-1.75-.739-1.73-.759-1.692-.765-1.718-.8-1.653-.8-1.659-.83-1.627-.82-.007-.145-.006-.088-.059-.081-.032-.02-.22-.126-.182-.126-.149-.143-.117-.146-.136-.181-.084-.2-.072-.2-.033-.224-.272-.029-.233-.081-.966-.431-.986-.389-.992-.389-1.018-.36-.007-.143-.039-.091-.052-.1-.038-.046L782.9,273.47l-2.308-2.11-2.288-2.084-2.288-2.136-2.256-2.119-4.479-4.291-.032-.279-.052-.253-.506-1.144-.519-1.128.4-1.245H736.289l.486.778.091.208.026.116.026.143-.195.794-.188.775-.227.758-.22.765-.253.7-.253.713-.285.7-.286.694-.175.317-.156.331-.175.318-.162.334-.343.629-.344.616-.214.288-.182.3-.22.288-.181.308-.408.542-.415.557-.078.081-.032.11-.039.117v.136l-.921.946-.9.983-.9,1-.862,1.03-.869,1.027-.817,1.053-.823,1.083L725,277.327l-.072.045h-.039v.017l-.032.029-.11.035h-.11v.017l-.032.252-.019.253-.039.11-.019.127-.013.233-.071.208-.065.207-.026.026h-.019v.055l-.039.091-.071.188-.1.208-.039.272-.467.294-.136.075-.065.026-.039.009-.007.036-.227.153-.467.288-.467.279-.506.253-.525.262h-.032l-.039.017-.052.029-.137.062-.252.126h-.046l-.038.019-.059.026-.117.072-.253.12h-.091l-.058.026-.137.027-.246.029-1.2-1.173-1.174-1.164L716.1,278.4l-1.128-1.209-1.122-1.235-1.076-1.245-1.076-1.26-1.024-1.28-1.05-1.316-1.011-1.326-1-1.351-.966-1.345-.953-1.387-.921-1.386-.92-1.436-.862-1.412-.072-.137-.032-.107-.027-.236-.991-.962-.966-.983-.927-1.037-.875-1.067H664.623l-.539.525-.453.577-.072.052h-.045v.019l-.026.026-.11.039h-.117v.006l-.1.389-.091.389-.065.179-.039.191-.123.369-.078.163-.052.178-.149.344-.162.324-.156.324-.1.243-.013.263-.24.253-.22.269-.441.542-.888,1.073-.9,1.047-.881,1.063-.921,1.018-.9,1.047-.473.506-.24.252-.227.279-.914,1.037-.953,1-.927,1.011-.253.243-.24.253-.473.506-.947,1.008-.979.985-.253.233-.24.26-.473.506-.985.966-.959.982-.072.055-.026.091-.032.117v.143l-.123.026-.072.019-.038.036-.227.091-.441.188-.473.171-.467.192-.487.162-.252.081-.24.1-1,.308-.052.026-.02.055-.013.081v.146l-.934-.778-.881-.791-.875-.8-.8-.84-.1-.081-.09-.036-.117-.026h-.11l-.46-1.092-.253-.542-.234-.5-.538-1.031-.557-.962-.311-.487-.3-.46-.622-.9-.68-.875-.344-.425-.337-.4-.078-.065-.071-.036-.117-.026h-.123l-2.094-3.831-1.03-1.929-1.011-1.948-.045-.065L630,260.74l-.117-.01h-.11v-3.352Z" transform="translate(1.343 234.728)" fill="#00537c" fill-rule="evenodd"/>
    <path id="Path_76" data-name="Path 76" d="M470.318,264.64l-.11.055-.09.081-.188.153-.116.071-.1.075-.181.162-.13.052-.11.055-.226.126-.124.055-.11.052-.214.136-.149.026-.129.055-.253.09-.143.026-.123.055-.253.091-.285.052-.285.055-.155.026-.149.029-.278.062-.285.019h-.143l-.13.01-.285.269-.253.3-.441.623-.091.207-.039.27-1.141.6-1.083.639-1.1.649-1.057.677-1.063.678-1,.729-1.018.729-.966.768h43.392l-.175-.515-.143-.506-.052-.269v-.269l-.583-.632-.584-.606-.6-.593-.59-.577-.622-.578-.623-.56-.648-.557-.629-.516-.084-.081-.032-.087-.026-.12v-.107l-.746-.188-.713-.2-.719-.217-.674-.218-1.349-.505-.641-.289-.616-.288-.072-.046-.026-.081-.026-.091v-.107H485.4l-.084-.243-.11-.172-.162-.172-.175-.116-.123-.062-.117-.029-.265-.052-.311-.019-.337.019v-.282l-.771.091-.759.11-1.555.207-.784.081-.778.1-1.582.152-1.634.136-.817.036-.81.074-.836.026-.823.046-1.679.071Z" transform="translate(97.178 273.234)" fill="#00537c" fill-rule="evenodd"/>
    <path id="Path_77" data-name="Path 77" d="M637.841,265.684l-.352-.1-.305-.146-.265-.186-.206-.246H590.76l-1.918,1.839-1.865,1.885-1.845,1.885-1.819,1.912-.08.06-.04.106-.027.106v.139l-1.075.4-1.009.465-.969.484-.9.564-.87.591-.81.644-.77.7-.717.77-.073.046-.033.12-.04.113v.139l-.836.378-.763.332-.757.279-.71.252-.677.166-.644.146-.617.08-.305.013-.265.013h-.551l-.086-1.089-.06-1.1-.066-1.148-.053-1.155-.073-1.228-.06-1.215-.066-1.261-.06-1.281-.033-.571-.551-1.082-.491-1.115-.239-.591-.206-.584-.206-.591-.173-.617h-43.39l-.856.651-.823.684-.8.7-.77.73-1.533,1.467-.75.757-.71.8-.737.783-.684.79-1.347,1.693-1.3,1.719-.611.883-.584.916-1.195,1.832-.564.936-.538.969-.544.962-.5,1-.982,2.038-.491,1.029-.465,1.062-.438,1.055-.412,1.089-.81,2.217-.724,2.3-.046.033-.046.026-.1.026h-.106v.007l-.226.1-.06.013-.053.02-.093.073-.219.073-.219.1-.252.067-.252.06h-.08l-.066.02-.126.026-.259.06h-.239l-.06.02-.279.04h-.557l-.06.007-.352-.007-.1-.02H500.7l-.339-.04-.345-.027-.292-.033h-.266l-2.044-.776-1.978-.79-1.945-.83-.962-.432-.936-.411-.12-.06-.113-.033-.272-.013-1.374-.956-1.347-.963-1.328-1-1.288-1-1.274-1.049-1.254-1.049-1.235-1.069-1.182-1.089-1.2-1.129-1.155-1.135-1.142-1.175-1.1-1.168-1.108-1.221-1.075-1.215-1.062-1.255-1.009-1.261-.08-.08-.08-.027-.119-.04h-.119l-3.684-8.483H444.326l.624,1.733.657,1.732.318.817.365.843.743,1.64.783,1.606.8,1.553.843,1.533.9,1.507h.113l.106.026.08.04.06.06.458.71.518.684.538.644.577.65.584.584.637.571.651.524.69.518v.126l.027.126.04.12.08.106.073.159.086.186.06.2.06.213.08.465.013.252.04.279h.119l.113.033.093.027.1.08,1.679,1.719,1.7,1.7,1.732,1.679,1.772,1.673,1.752,1.653,1.805,1.633,1.8,1.613,1.852,1.593.252.013.113.033.119.06,2.695,1.447,2.682,1.507,2.648,1.513,2.642,1.56h2.8v.12l.013.093.013.04.053.053,2.536.823,2.509.87,2.489.883,2.449.943,2.4.929,2.4.989,2.336,1.022,2.323,1.062.04.544.12,1.766.12,1.779.093,1.786.093,1.839h16.78l-.239-.491-.2-.491-.192-.558-.139-.551-.04-.033-.04-.013H520.1v-1.122l-.033-.531-.053-.5-.08-.491-.073-.458-.113-.438-.126-.4-.047-.146-.013-.126-.027-.272L522.85,313l3.372-.611,3.365-.6,3.418-.551,3.418-.551,3.465-.5,3.485-.5,3.518-.445.551-.02.292-.272.332-.239.359-.219.391-.173.438-.186.465-.126.491-.106.557-.08v-.08h.02v-.206h2.8l1.421-.451,1.44-.451,1.427-.471,1.414-.458,1.394-.491.7-.252.345-.133.365-.106,1.367-.5,1.394-.491,1.348-.538,1.361-.524,1.334-.551,1.341-.538,1.314-.578,1.308-.571,1.3-.584,1.314-.571,1.255-.611,1.281-.624,1.235-.617,1.281-.644,1.228-.657,1.235-.651,1.215-.664,1.221-.657,1.181-.7,1.188-.7,1.175-.71.279-.2.3-.173.6-.339.564-.392.292-.179.305-.179,1.148-.724,1.135-.743,1.142-.743.046-.06v-.046h.013l.04-.04.027-.1v-.106h.02l.358-.153.378-.146.372-.159.372-.146.73-.332.723-.319.71-.339.684-.352.664-.378.67-.365.206-.086.266-.027.531-.7.551-.657,1.148-1.287,1.188-1.248,1.248-1.188,1.281-1.155,1.341-1.089,1.381-1.042.717-.511.744-.471.206-.113.265-.033,1.587,1.427,1.586,1.454,1.56,1.454,1.56,1.5,1.52,1.487,1.52,1.513,1.5,1.533,1.513,1.566,1.44,1.547,1.46,1.6,1.427,1.593,1.427,1.633,1.387,1.633,1.394,1.659,1.361,1.673,1.354,1.713.053.04.086.053.113.027.14.026-.12.219-.06.106-.053.126-.226.478-.252.445-.119.212-.066.113-.046.133-.285.4-.08.1-.066.113-.12.219-.166.193-.066.1-.073.106-.279.4-.086.066-.033.113-.02.12v.133l-.9.431-.451.219-.4.252-.431.245-.4.266-.75.551-.73.584-.677.631-.657.671-.312.352-.285.378-.08.073-.027.113-.033.113v.146l-.763.292-.71.332-.71.352-.684.385-.684.359-.637.411-.65.418-.611.431-.073.053-.033.08-.027.093v.139l-.876.046-.836.08-.8.113-.743.153-.75.179-.71.245-.684.226-.631.305-.06.013-.033.08-.013.239-.9.066-.87.106-.869.126-.823.179-.823.172-.8.226-.783.212-.737.272-.053.02-.013.073-.013.08v.146h-2.8l-.4.212-.4.226-.226.093-.066.02-.04.033-.1.06-.418.219-.85.372-.438.173-.226.08-.206.093-.139.033-.126.033h-.08l-.066.013-.119.013-.08.159-.066.179-.1.153-.027.033-.013.02v.026l-.033.086-.066.08-.033.02-.013.02v.027l-.066.073-.033.026-.013.007v.04l-.126.126-.066.067-.027.026-.02.026v.027l-.159.086h-.027l-.013.02-.04.033-.06.067-.153.1-.159.106-.192.066-.192.08-.2.066-.2.08-.04.053-.013.159h39.368l1.314-.81,1.361-.757,1.374-.737,1.407-.724,1.407-.7,1.447-.684,1.48-.671,1.5-.631.027-.046v-.047h.02l.033-.033.02-.093v-.113h5.052l1.314.651,1.314.7,1.281.717,1.281.757,1.248.757,1.241.81,1.2.8,1.195.856h47.95l-.252-.538-.226-.524-.033-.133-.027-.139-.013-.252-.352-.312-.345-.279-.385-.272-.4-.246-.418-.232-.445-.206-.458-.206-.478-.173-.04-.046-.027-.047-.007-.1v-.106l-1.5-.06-1.474-.086-1.447-.086-1.407-.12-1.387-.133-1.347-.173-1.334-.2-1.274-.2-.285-.053-.266-.02-.465-.339-.451-.312-.524-.279-.518-.232-.591-.245-.584-.206-.631-.193-.657-.139-.026-.033-.02-.04v-.212h-2.794l-6.439-3.053-3.226-1.494-3.232-1.48-.119-.066-.113-.02-.252-.02-.073-.239-.066-.206-.093-.206-.133-.173-.119-.179-.166-.12-.179-.133-.186-.093-.066-.04-.033-.066-.013-.12V305.3l-.285-.026-.252-.027-.458-.073-.219-.066-.192-.06-.186-.08-.159-.08-.113-.073-.106-.04-.126-.033h-.126l-.179-.491-.159-.445-.179-.471-.166-.425-.418-.836-.212-.4-.219-.359-.093-.113-.013-.106-.04-.133v-.119l.544-.863.232-.438.106-.219.133-.206.073-.259.026-.252,24.706-23.3.053-.086.1-.026.106-.027h.146l.3.013.305.04.286.06.292.066.252.073.272.093.5.2.451.239.2.126.206.166.372.332.159.173.166.2.053.08.047.113.02.113.02.146h.252l.259.026.465.08.213.047.206.08.179.08.186.113.206.086.126.04.146.013.6.757.65.763.644.743.684.75.684.684.71.7.71.677.757.664.04.046.06.1.033.106.013.146,1.938,1.181,1.965,1.175,1.985,1.142,2.018,1.135,2.018,1.1,2.084,1.089,2.064,1.056,2.144,1.049,2.111,1,2.164,1.016,2.177.949,2.21.956,2.21.916,2.27.916,2.277.883,2.316.876.02.02.04.06.02.08.007.146h3.352l.9.531.478.232.5.259,1.029.425.538.192.558.193,1.135.318.577.126.624.126,1.254.193.651.086.67.08h.272l.285.013,1.726.65,1.786.631,1.819.584.916.292.949.279.929.239.969.252.962.239,1,.232.989.212,1.009.212,2.038.4,2.078.332,1.042.166,1.062.152,2.184.252,1.082.113,1.128.126,1.108.086,1.135.086,2.3.166,1.148.04,1.181.046,2.39.086v.272l.312.292.305.318.279.332.292.372.252.339.239.392.438.79.086.245.033.266-.246.392-.2.432-.365.943-.332.989-.153.524-.1.571h-.04v.013l-.033.027h-.219v2.8l-.3.478h19l.252-1.46.12-.717.066-.372.073-.345.5-2.9.471-2.907.219-1.467.232-1.454.126-.02.133-.04.046-.026.066-.007.04-.04.066-.013.332-.219.365-.2.352-.179.4-.166.4-.159.425-.12.909-.206.923-.179.5-.066.524-.02,1.069-.06h.551l.6.04v-.292l.02-.006h.319l.166-.02h.153l.133-.033.06-.013h.066l.053-.033.073-.007.113-.04.04-.047.046-.033.093-.066.033-.047.046-.033.08-.053.053-.1.04-.1.033-.106.046-.093h2.8v-.139l.02-.086.013-.06.046-.02,1.016-.358,1.016-.352,1.029-.359,1.015-.358,1.985-.75.989-.4.982-.385,1.912-.817.962-.425.929-.412.936-.451.458-.219.471-.206.916-.458.923-.445.013-.232.033-.08.06-.02,1.221-.724,1.195-.75.292-.206.305-.186.6-.372,1.161-.783,1.142-.8,1.122-.83,1.1-.85.538-.445.272-.219.285-.206,1.035-.9,1.036-.909,1.009-.956,1-.949.949-.982.963-1,.916-1.016.922-1.036.863-1.075.85-1.089.83-1.128.816-1.115.8-1.155.783-1.175.737-1.208.724-1.215.7-1.248.671-1.261.65-1.294.651-1.3.631-1.321.6-1.354.564-1.381.571-1.381H847.1l-.5,1.328-.511,1.307-.538,1.281-.518,1.294-.544,1.275-.564,1.261-.584,1.234-.153.3-.146.312-.279.631-.093.226-.02.266-.757.929-.392.452-.358.471-.392.445-.378.458-.77.922-.777.863-.79.889-.83.85-.418.425-.392.451-.85.823-.438.412-.412.425-.432.4-.431.412-.85.823-.883.79-.883.79-.929.77-.465.378-.438.4-.08.053-.033.093-.026.086v.146l-.81.418-.79.425-1.613.843-.823.392-.8.411-1.653.823-1.679.77-.856.391-.418.179-.418.206-1.712.764-1.706.763-.06.007-.04.08-.007.232-1.52.166-1.52.146-1.553.106-1.547.113-.571.033-.763-1.427-.743-1.42-.717-1.447-.684-1.447-.7-1.487-.65-1.493-.637-1.513-.6-1.52-.06-.252-.013-.272-.239-.06-.206-.086-.206-.086-.179-.12-.166-.133-.139-.166-.113-.173-.1-.186-.046-.073-.086-.027-.086-.013h-.106l-.126-.6-.146-.551-.159-.544-.186-.491-.2-.5-.212-.465-.252-.438-.252-.4-.093-.106-.033-.12-.02-.113v-.139l-.757-.976-.743-.949-.783-.949-.763-.909-.79-.943-.777-.9-.81-.9-.81-.87-.83-.89-.85-.849-1.706-1.693-.9-.836-.883-.816-.9-.8-.883-.79H747.216l-.485.518-.478.551-.445.558-.431.571h-.046v.033l-.027.027h-.053v.02l-.033.033-.113.026-.126.006-.153.544-.046.126-.033.139-.066.279-.339,1.115-.173.538-.106.272-.073.279-.206.544-.086.272-.073.285h-.053v.007l-.046.033-.093.013h-.113v.026l.02,1.055.047,1.062.06,1.009.106,1,.113.962.12.936.166.9.2.883h-.272l-1.659-.73-.81-.392-.77-.372-1.54-.83-.737-.445-.717-.418-.113-.086-.113-.027-.119-.033h-.133l-.451-.551-.246-.279-.212-.239-.531-.445-.524-.438-.584-.391-.312-.193-.3-.159-.332-.172-.319-.139-.677-.279-.259-.053-.266-.02-.624-.664-.624-.611-.65-.624-.657-.584-.7-.578-.7-.564-.743-.538-.737-.5-.073-.053-.033-.08-.033-.106v-.106l-.69-.332-.637-.312-1.254-.7-.611-.385-.591-.385-1.129-.81H673.346l-1.082,1.195L671.2,267.41l-2.144,2.37-2.184,2.323-1.1,1.155-1.1,1.168-2.237,2.277-1.148,1.128-1.115,1.129-1.155,1.122L657.88,281.2l-2.31,2.2-.1.046-.1.046-.113.033h-.1v.013l-.67-.365-.631-.365-1.248-.743-1.228-.777-.584-.418-.578-.385-1.155-.869-.577-.438-.531-.432-.551-.458-.518-.458-1.042-.929-1.016-1-.969-1.029-.943-1.062-.9-1.075-.863-1.135-.836-1.155-.81-1.188-.737-1.221-.066-.06-.073-.033-.113-.013h-.12l-.026-.285-.013-.252-.08-.465-.133-.425-.073-.193-.08-.153-.086-.106-.026-.113-.04-.133v-.12ZM519.133,294.034l-.08-.106-.033-.086-.027-.126v-.126l.2-.232.2-.219.066-.12.106-.113.159-.259.126-.279.126-.305.093-.312.093-.339.013-.186.04-.173.046-.378.027-.4.02-.411-.02-.445-.027-.458-.046-.478-.053-.471-.047-.286-.013-.279.83-1.679.823-1.68.8-1.7.79-1.7.027-.12.013-.066.04-.053.033-.252.77-.9.8-.876,1.633-1.719,1.666-1.686,1.686-1.64.053-.106.053-.093v-.113h.013l.013-.126,2.814-1.367,1.427-.684,1.454-.651,2.92-1.314,2.994-1.248.033-.053.013-.027.04-.013v-.119h.013v-.113h7.275l.438.432.491.438.524.365.557.372.551.3.617.3.631.266.677.239.252.073.272.027.8,1.128.757,1.188.08.2.04.266.066.525.026.571-.013.564-.066.611-.133.624-.173.65-.212.664-.272.7-.033.006-.013.04h-.053v.02l-.033.027-.08.02H554.7v3.352l.71,1.361.75,1.381.743,1.361.777,1.381.04.026.086.04.093.02.146.02-.518.378-.511.385-1.062.77-1.1.73-.564.339-.285.173-.272.193-1.148.664-1.175.651-.319.146-.3.153-.6.319-1.215.6-.332.126-.319.146-.631.285-.644.252-.637.266-.345.119-.338.126-.664.252-.345.106-.332.126-.664.252-1.394.432-.359.093-.352.106-.7.226-.73.193-.358.086-.352.119-.378.08-.365.086-.73.192-.033.02-.007.08-.02.073v.139l-.823.259-.79.252-.777.226-.757.206-.757.179-.73.146-.73.139-.7.139-.71.08-.684.073-.664.046-.651.033h-.644l-.617-.013-1.188-.106-.6-.086-.564-.106-.558-.146-.518-.146-.538-.173-.5-.186-.969-.451-.471-.259-.458-.279-.445-.332-.405-.312-.431-.345-.392-.372-.385-.392-.365-.418Zm241.478-26.106h7.255l1.44.551,1.407.617,1.381.644,1.354.684,1.274.717,1.294.737,1.248.777.6.4.617.431,1.155.83,1.155.876,1.128.9.544.465.551.485,1.016.962,1.035,1.042.5.5.491.544.949,1.082.06.046.093.053.086.026.146.02.445.73.438.757.4.757.4.81.358.8.359.836.338.83.339.876.272.863.292.9.265.909.252.949.226.943.206.982.186.982.192,1.029.02.126.02.146.027.279-.392.1-.173.047-.186.059-.717.206-.385.067-.193.026-.093.02-.08.033-.737.12-.75.073-.73.047h-.763l-.385-.013h-.359l-.2-.033-.2-.02-.372-.027-.763-.1-.79-.146-.763-.173-.783-.226-.4-.12-.385-.113-.77-.305-.8-.285-.066-.06-.027-.08-.013-.086v-.12l-.81-.139-.77-.133-1.546-.259-1.5-.332-1.467-.345-1.44-.418-1.407-.431-1.387-.485-.664-.252-.651-.245-.06-.04-.007-.046-.027-.113v-.106h-2.781l-1.274-.7L763.08,290l-1.321-.651-1.314-.61-1.341-.624-1.341-.578-1.374-.584L755,286.42l-.126-.046-.133-.02-.259-.013-.093-.206-.06-.173-.093-.186-.08-.133-.219-.272-.126-.126-.126-.086-.166-.12-.159-.08-.325-.139-.192-.06-.186-.033-.219-.033h-.192l-.558-.033.053-.232.027-.232.013-.193.007-.179-.007-.193-.02-.159-.06-.146-.053-.106-.093-.133-.086-.086-.113-.1-.12-.066-.305-.106-.186-.026h-.179v-.279l.5-.179.113-.073.119-.033.252-.1.226-.126.106-.066.139-.04.451-.252.411-.292.405-.279.392-.325.378-.325.06-.073.106-.027.1-.033h.153l.259-.843.332-.817.338-.8.4-.783.02-.053.073-.04.246-.013v-4.454l.458-.816.5-.737.538-.71.591-.67.047-.086.053-.113.02-.106.027-.119.531-.179.538-.166.252-.113.272-.1.524-.226.033-.033v-.06h.013l.027-.02.02-.106v-.106Z" transform="translate(29.542 281.664)" fill="#00537c" fill-rule="evenodd"/>
    <path id="Path_78" data-name="Path 78" d="M453.714,259.42h-.026v.11h-.013v.117l-.045.065-.032.042-.214.091-.182.136-.155.117-.123.181-.136.172-.078.207-.077.208-.033.233-.265.036-.208.107-1.3.866-1.264.9-2.47,1.854h21.371l.428-.207.448-.224.265.019.11.036.13.062.356.171.415.143h21.91l-.4-.71-.4-.668-.427-.648-.435-.622-.479-.613-.493-.57-.505-.548-.519-.506-.272-.036-.2-.071-.7-.415-.674-.38-.713-.388-.694-.334-.732-.341-.726-.308-.745-.289-.726-.262-.778-.269-.771-.227-.8-.214-.771-.191-.8-.188-.811-.162-.823-.155-.817-.107-.875-.136-.849-.072-.875-.081-.868-.045-.907-.055-.882-.007-.921-.019-.9.026-.946.019-.934.062-.946.064-.953.108-.985.11-.973.133-1,.146-.985.171h-.013v.107h-.013v.117l-.032.046h-.013v.045l-1.024.334-1.005.36-1.963.749-1.912.775-.927.4-.9.421Z" transform="translate(45.157 226.545)" fill="#00537c" fill-rule="evenodd"/>
    <path id="Path_79" data-name="Path 79" d="M453.822,256.818v.117l.013.091.019.045.039.055.83.3.8.35.79.343.771.386.745.38.726.415.707.4.687.46v.127l.032.126.032.107.078.11.188.334.175.36.156.386.143.425.11.434.1.467.065.49.052.538h-.149l-.1.029-.117.036-.059.081-.148.1-.124.108-.272.217-.279.207-.272.224-.292.182-.311.2-.311.172-.3.188-.35.146-.331.162-.344.143-.175.055-.155.081-.383.117-.363.117-.382.12-.363.127h-.019v.107l-.026.126-.052.091-.026.052-.019.065-1.062,1.422-1.031,1.472v5.03h.129l.11.036.1.026.077.081.473.47.467.522.434.522.448.578.272.009.11.029.124.072,1.711.739.836.4.849.424h5.023V279l.013-.081.026-.081.052-.016.635-.237.648-.214.629-.243.635-.227.6-.253.6-.233,1.187-.506v-.143l.039-.11.026-.107.084-.065.752-.784.81-.719.8-.723.842-.7.013-.279.058-.243.311-.921.37-.865.195-.422.22-.4.492-.784V260.73l-.143-.017-.078-.009-.065-.036-.013-.036-.37-1.056-.188-.522-.188-.486L473,257.6l-.227-.476-.22-.444H450.64l.3.055.35.072.37.045.395.029h.836l.441-.029.492-.036Z" transform="translate(65.136 234.728)" fill="#00537c" fill-rule="evenodd"/>
    <path id="Path_80" data-name="Path 80" d="M470.156,273.335H453.373l.065,2.794.045,2.865h.111l.1.019.045.016.046.029.1.406.123.4.149.37.176.363.168.334.207.315.2.278.24.279v2.788h.111l.11.009.045.017.058.045.674,2.262.363,1.108.4,1.1.382,1.083.408,1.079.415,1.057.441,1.063.421,1.018.467,1.037.461.992.486,1.012.474.963.506.982.505.957.538.947h.11l.11.035.084.029.058.062.162.253.188.234.208.226.24.208.233.172.272.171.265.143.3.146v.123l.026.126.033.11.078.117.078.152.078.191.129.421.084.47.039.515h.13l.11.036.09.026.1.081,1.8,1.721,1.847,1.714,1.867,1.676,1.9,1.679,1.906,1.64,1.938,1.63,1.944,1.6,1.99,1.6.273.007.11.035.13.065,1.439.684,1.439.7,1.407.713,1.42.759,1.393.765,1.4.785,1.355.794,1.361.82h2.788v.107l.012.12.013.042.039.055.622.153.622.191.59.208.564.243.518.224.532.281.486.279.473.334.272.01.279.052,2.4.344,2.437.314,2.417.272,2.444.224,2.424.156,2.444.133,2.438.081,2.45.029,2.438-.055,2.437-.081,2.431-.117,2.47-.172,2.437-.243,2.463-.262,2.45-.325,2.477-.36v-.272l.026-.016h.317l.162-.01h.156l.123-.036.065-.019h.078l.052-.026.058-.019.13-.036.026-.036.052-.035.1-.072.033-.036.045-.035.078-.065.046-.1.052-.088.032-.11.045-.1.292-.009.279-.055,1.309-.188,1.381-.146,1.407-.107,1.471-.065v-.269l.032-.02h.311l.155-.016h.162l.13-.026.064-.01h.072l.052-.035.064-.02.124-.026.039-.055.039-.026.1-.064.026-.055.045-.026.078-.061.052-.1.052-.09.026-.117.052-.091.124-.016.065-.01h.078l.123-.036.065-.019h.084l1.783-.593,1.8-.586,3.578-1.189,1.77-.613,1.789-.606,3.539-1.215,3.513-1.255,3.513-1.261,3.481-1.3,3.482-1.3,1.7-.678,1.724-.668,1.711-.684,1.724-.658,1.692-.694,1.711-.687,3.4-1.4,3.351-1.416,3.358-1.432,3.312-1.442,3.339-1.458v.107l.006.117.026.055.078.052,5.86,2.57,5.9,2.589L622.5,311l5.97,2.5,6,2.434,3,1.209,3.046,1.215,6.054,2.372,6.113,2.36.564.029,1.205.163,1.245.142,1.264.117,1.316.11v.279l.324-.019.324.019.266.036.11.036.129.074.175.107.162.172.09.172.072.233.272.019.129.017.143.045,1.5.415.739.188.759.208,1.478.363,1.53.369,1.478.315,1.517.3,1.5.269,1.51.252,1.478.2,1.536.2,1.478.169,1.523.162,1.484.11,1.517.091,1.478.081,1.536.052,1.478.01,1.484-.01,1.49-.036,1.511-.045,1.5-.1,1.517-.11,1.484-.126,1.523-.143,1.478-.191.363-.062.389-.055.759-.09,1.484-.234,1.517-.243,1.5-.279,1.51-.308,1.491-.324,1.51-.35h2.787v-.145l.019-.081.02-.072.033-.019L713.2,325l.447-.162.22-.081.233-.064.921-.279.882-.315.454-.162.214-.081.234-.065,1.756-.622.856-.36.85-.325,1.7-.694.83-.389.817-.36.8-.379.83-.36.019-.272.091-.2.175-.3.246-.243.279-.2.325-.162.343-.143.4-.09.434-.055.467-.007v-.146l.039-.107.032-.1.071-.046.13-.126.143-.117.292-.217.558-.441,1.147-.891,1.109-.911.124-.126.142-.117.292-.227.563-.431.532-.48.13-.127.142-.116.292-.218,1.1-.917,1.083-.947.544-.48.124-.126.136-.107.291-.227,1.05-.982.253-.252.13-.117.143-.117.538-.47,1.05-.982.253-.252.123-.127.143-.107.531-.477,1.024-.992.5-.515.253-.253.129-.127.143-.116,1.011-1.008.506-.506.253-.252.124-.127.142-.107v-.146l.02-.081.039-.081.052-.026.039-.045.052-.036.091-.065.026-.045.045-.036.091-.062.033-.09.078-.1.032-.107.039-.09v-.143l.02-.127V301.5l.013-.071-.033-.172-.019-.155-.019-.178-.032-.153.124-.029.129-.026.045-.026.058-.019.046-.036.064-.009.253-.188.253-.2.233-.214.052-.065.058-.045.137-.1.1-.126.045-.065.065-.045.214-.244.188-.252.207-.25.162-.282.176-.289.058-.152.039-.081.046-.062.149-.3.02-.1.039-.071.052-.162.136-.334.1-.353.11-.341v-.019h.11l.123-.026.052-.035.058-.02.124-.045.129-.107.143-.1.11-.127.123-.107.09-.146v-.026l.02-.019.033-.036.078-.062.071-.152.091-.146.052-.2.052-.171.058-.189.052-.181.026-.227.026-.2.02-.218.039-.226V293.5h.1l.091-.009.039-.036v-.019h.045l.045-.026.1-.227.117-.172.136-.162.169-.123.181-.126.2-.091.207-.081.24-.036.012-.282.058-.243.493-1.306.519-1.29.525-1.27.557-1.255,1.122-2.495,1.167-2.454v-2.82h.2l.039-.029h.032l.577-2.82.117-.7.143-.7.292-1.387H739.435l-.674.963-.629,1.011-.615,1.027-.577,1.063-.578,1.053-.531,1.112-.512,1.125-.486,1.154-.091.236-.019.269-2.859,1.867-2.8,1.9-.129.046-.065.006-.045.036-.124.039h-.11v.006l-.032.253-.02.253-.026.117L728.5,287l-.033.237-.058.088-.033.12-.058.208-.032.035h-.02v.036l-.019.1-.091.191-.1.207-.039.27-1.439,1.137-1.419,1.164-2.872,2.289-2.923,2.252-2.917,2.256-.084.045-.026.088-.039.12v.143l-2.9,1.138-2.9,1.17-5.789,2.4-.065.019-.026.062-.02.081v.146l-2.885.567-2.878.506-2.871.441-.732.1-.356.045-.357.065-1.419.207-1.465.152-1.426.162-2.884.272-1.459.1-1.439.09-2.871.162-2.917.065h-2.541l-.344.007-2.923-.062-1.459-.045-.719-.036-.362-.01h-.344l-1.478-.1L667,305.591l-2.9-.227-2.911-.314-2.91-.344-.564-.036-.675-.395-.693-.334-.758-.3-.415-.127-.4-.1-.441-.107-.427-.081-.448-.072L653,303.1l-.493-.062-.473-.029-1.011-.016h-.551l-.791-.425-.8-.4-1.613-.785-1.686-.739-.862-.36-.869-.334-.045-.045-.033-.046-.007-.1v-.11h-2.8l-.908-.3-.875-.308-.849-.36-.811-.36-.816-.4-.784-.4-.759-.425-.706-.441-.739-.47-.668-.5-.681-.522-.635-.532-.629-.577-.6-.568-.577-.6-.538-.622-.084-.107-.026-.1-.039-.127v-.107l.383-.684.214-.318.233-.278.22-.308.253-.259.557-.5.558-.46.648-.4L633,288.3l.745-.288.253-.065.279-.006.453-.081.454-.064.447-.081.453-.062.214-.075.215-.035.447-.1.4-.12.434-.088.182-.081.214-.065.415-.126.375-.143.389-.117.182-.1.188-.072.382-.162.175-.1.181-.081.382-.153.033-.045v-.055h.02l.038-.026.007-.1V285.7h.007l6.676-1.138,6.729-1.043.551-.055.649-.152.635-.172.589-.191.616-.208.57-.243.552-.253.246-.133.272-.127.525-.288.467-.334.486-.334.435-.36.453-.363.4-.412.389-.415.369-.444.072-.117.1-.116.188-.227.058-.081.072-.026.091-.026h.142v-3.912l-.3-.6-.253-.6H614.791l.356.289.058.036.052.081.026.1.013.146.538.143.525.181.487.2.492.234.46.217.44.272.409.269.415.324.052.036.039.1.032.116.019.136-.181.182-.175.188-.363.379-.388.34-.188.181-.175.182-.208.162-.188.172-.208.162-.188.172-.4.314-.415.334-.447.289-.441.3-.234.127-.226.142-.441.279-.467.253-.486.253-.253.117-.233.126-.486.253-.272.1-.253.108-.272.09-.253.107-.538.2-.273.091-.253.11-.564.179-.285.071-.265.11-.577.143-.571.181-.6.127-.6.126-.318.046-.291.061-.616.136-.649.091-.641.1-.331.029-.318.045-.331.036-.318.045-.551.026-.992-.577-.512-.269-.545-.237-1.128-.467-.6-.2-.6-.171-.052-.052-.013-.045-.012-.1v-.107h-2.8l-.22-.3-.24-.269-.279-.236-.163-.108-.162-.081-.383-.171-.4-.117-.434-.081-.48-.046-.026-.035v-.234h-2.806l-.745-.334-.681-.343-.343-.208-.318-.188-.622-.4-.311-.233-.285-.227-.557-.486-.519-.532-.492-.516-.071-.107-.039-.1-.032-.127v-.11l1.8-1.189,1.861-1.134H548.9v.088l-.4.733-.292.775-.214.784-.117.846-.039.839.058.9.129.9.233.946.046.253.033.272.46.415.486.422.512.4.538.4.538.36.583.37.6.327.635.331.032.019.046.081.019.091.012.143.888.065.869.107.856.136.842.172.8.171.8.224.778.217.771.27.013.019.038.081.013.071.019.146h2.794l.382.208.409.224.415.181.441.217.9.341.966.3.991.234,1.063.207,1.1.162,1.154.127.557.038,4.933,2.334,5,2.343.032.026.046.084.013.081.013.143-.409.425-.408.422-.441.4-.24.2-.22.2-.492.343-.506.36-.266.156-.252.169-.538.324-.577.262-.292.127-.285.146-.622.25-.311.12-.3.117-.332.1-.317.11-.661.188-.7.172-.694.162-.026.019-.026.045v.224h-2.8l-.045.127-.026.143-.045.12-.039.062-.013.036v.045l-.083.1-.058.108-.1.1-.026.01-.019.035-.032.062-.124.065-.064.026-.032.026-.019.029-.143.062-.123.081-.162.026-.155.055-.168.029-.162.042-.033.019v.27h-2.781l-.966.434-.253.107-.129.036-.11.074-.473.214-1,.415-.525.191-.505.208-.532.172-.525.188-1.076.344-1.1.333-1.129.315-.052.081v.227H552.8l-.3.249-.1.055-.072.055-.162.126-.195.1-.091.045-.084.065-.2.1-.195.11-.44.163-.234.061-.227.081-.252.036-.253.074-.519.091-.032.017v.252l-1.886.289-1.867.262-.947.117-.927.127-1.873.214-1.893.191-1.906.172-.966.071-.947.072-1.892.126-1.932.081-1.932.065-.978.016-.966.036-1.932.029-1.964-.019-1.945-.026-.991-.036-.986-.019-1.958-.062-.285-.029h-.272l-.311-.289-.331-.233-.369-.217-.4-.178-.441-.172-.46-.126-.493-.11-.519-.062-.026-.036v-.253h-2.787l-4.226-1.659-4.188-1.65-4.2-1.659-4.148-1.64-.143-.055-.136-.006-.265-.02-.065-.233-.065-.217-.09-.2-.11-.172-.143-.182-.162-.126-.175-.126-.181-.1-.072-.036-.026-.074-.019-.107v-.107l-1.277-.642-1.238-.648-1.219-.677-1.167-.694-1.186-.729-1.141-.722-1.128-.765-1.089-.775-1.089-.82-1.057-.82-1.05-.859-.992-.866-1-.9-.966-.9-.947-.937-.9-.947-.1-.065-.1-.035-.1-.036H475.8l-.85-1.811-.823-1.822-.81-1.847-.758-1.841-.065-.123-.032-.11-.013-.253-.363-.224-.331-.236-.337-.269-.285-.27-.279-.3-.252-.317-.24-.351-.207-.36Z" transform="translate(80.546 328.617)" fill="#00537c" fill-rule="evenodd"/>
    <path id="Path_81" data-name="Path 81" d="M558.415,268.243l-1.6-1.387-1.588-1.371-1.6-1.361-1.607-1.326-.26-.026-.246-.081-1.847-.885-1.848-.862-3.753-1.659-3.811-1.624-1.919-.794-1.938-.755h-3.9v-.289l-.363-.009-.182-.029h-.143l-.272-.036-.123-.052-.091-.029-.117-.081-.071-.062-.149-.146-.117-.188-.032-.2-.577-.035-1.77-.146-1.75-.1-1.744-.055-1.75-.029-1.731.029-1.744.055-1.738.117-1.73.162v.279l-.363-.019-.311.019-.265.046-.136.035-.1.062-.181.11-.143.172-.11.172-.052.243h-2.813v.107l-.02.1-.032.007-.013.036-.032.045-4.175,1.8-4.077,1.812h-.013v.107l-.039.12-.026.026h-.026v.055l-.019.026h-.019v.055l-.506.4-.48.425-.933.881-.9.921-.856.966-.817.992-.4.5-.357.541-.389.525-.35.558-.687,1.134h12.3l.344-.4.356-.37.778-.694.4-.324.421-.308.908-.568.927-.522.486-.236.532-.208,1.057-.395.557-.182.577-.133h.577l1.407.042,1.368.091,1.355.117,1.335.165,1.29.169,1.284.2,1.244.224,1.225.272,1.193.269,1.174.315,1.135.334,1.121.379,1.076.4,1.07.425,1.024.451,1.03.486Z" transform="translate(324.623 223.166)" fill="#00537c" fill-rule="evenodd"/>
    <path id="Path_82" data-name="Path 82" d="M510.34,256.682h-12.3l-.512.885-.5.937-.006.263-.026.288-.182.921-.143.9-.11.881-.058.865-.071.849-.013.82.013.81.045.794.046.768.1.745.1.723.182.729.174.677.195.684.246.658.285.651.26.6.343.6.344.587.4.567.4.541.428.516.473.5.518.5.505.46.552.444.583.421.616.415.616.379.68.379.707.351.739.343h1.316l.759-.009.726-.046.356-.035.013-.017h.344l.156-.029.032-.016h.136l.363-.036.655-.091.648-.126.623-.146v-.143l.039-.107.039-.1.059-.045.363-.35.078-.091.09-.081.2-.162.344-.363.344-.34.324-.38.311-.389.3-.4.064-.107.084-.1.162-.189v-4.463l-.149-.01-.1-.036-.1-.045-.045-.055-.83-.882-.817-.856-.855-.849-.83-.83-.875-.82-.869-.784-.907-.794-.882-.749v-3.352h.1V260.7h.11l.02-.036.032-.019.059-.026.214-.567.252-.541.273-.525.3-.487.3-.5.337-.457.324-.454.383-.415Z" transform="translate(323.247 234.728)" fill="#00537c" fill-rule="evenodd"/>
    <path id="Path_83" data-name="Path 83" d="M529.8,271.157l-.084-.036-.078-.081-.026-.081-.039-.11v-.126l-4.661-2.343-4.706-2.344-.052-.045-.038-.081-.033-.107v-.11h-2.781l-.518-.224-.506-.191-1.024-.334-1.018-.3-1.024-.236-1.05-.214-1.043-.136-.538-.065-.525-.036-.538-.026H509l-.551-.019-.532.019-.557.01-.544.052-1.1.091-1.1.181-1.134.179-1.121.281-1.135.3-1.134.363-.072.081-.02.081v.143h-2.775l-1.05.551-1,.6-.966.613-.92.677-.9.7-.83.739-.83.785-.771.794Z" transform="translate(286.8 275.516)" fill="#00537c" fill-rule="evenodd"/>
  </g>
</svg>
